G04 #@! TF.GenerationSoftware,KiCad,Pcbnew,(5.99.0-1023-gd6706c257)*
G04 #@! TF.CreationDate,2020-03-03T16:21:59+01:00*
G04 #@! TF.ProjectId,flex-dip,666c6578-2d64-4697-902e-6b696361645f,rev?*
G04 #@! TF.SameCoordinates,Original*
G04 #@! TF.FileFunction,Copper,L1,Top*
G04 #@! TF.FilePolarity,Positive*
%FSLAX46Y46*%
G04 Gerber Fmt 4.6, Leading zero omitted, Abs format (unit mm)*
G04 Created by KiCad (PCBNEW (5.99.0-1023-gd6706c257)) date 2020-03-03 16:21:59*
%MOMM*%
%LPD*%
G01*
G04 APERTURE LIST*
%ADD10C,0.010000*%
%ADD11C,1.800000*%
%ADD12C,1.600000*%
%ADD13R,1.600000X1.600000*%
%ADD14C,0.304800*%
%ADD15C,0.300000*%
%ADD16C,0.250000*%
G04 APERTURE END LIST*
G36*
X119085130Y-65126388D02*
G01*
X119163674Y-65126818D01*
X119220518Y-65127982D01*
X119259325Y-65130247D01*
X119283758Y-65133980D01*
X119297482Y-65139546D01*
X119304160Y-65147313D01*
X119307456Y-65157645D01*
X119307776Y-65158983D01*
X119312782Y-65183119D01*
X119322049Y-65230741D01*
X119334612Y-65296781D01*
X119349507Y-65376168D01*
X119365771Y-65463836D01*
X119366339Y-65466915D01*
X119382630Y-65552829D01*
X119397872Y-65628736D01*
X119411081Y-65690085D01*
X119421274Y-65732322D01*
X119427468Y-65750895D01*
X119427763Y-65751224D01*
X119446008Y-65760293D01*
X119483625Y-65775407D01*
X119532491Y-65793302D01*
X119532763Y-65793398D01*
X119594313Y-65816533D01*
X119666877Y-65846005D01*
X119735277Y-65875637D01*
X119738514Y-65877102D01*
X119849922Y-65927666D01*
X120096619Y-65759200D01*
X120172297Y-65707843D01*
X120240851Y-65661929D01*
X120298308Y-65624070D01*
X120340696Y-65596877D01*
X120364045Y-65582961D01*
X120366262Y-65581929D01*
X120383230Y-65586524D01*
X120414921Y-65608695D01*
X120462572Y-65649487D01*
X120527418Y-65709945D01*
X120593617Y-65774267D01*
X120657434Y-65837652D01*
X120714549Y-65895491D01*
X120761525Y-65944215D01*
X120794923Y-65980250D01*
X120811305Y-66000024D01*
X120811914Y-66001042D01*
X120813725Y-66014612D01*
X120806903Y-66036773D01*
X120789760Y-66070518D01*
X120760613Y-66118840D01*
X120717775Y-66184732D01*
X120660668Y-66269557D01*
X120609986Y-66344217D01*
X120564681Y-66411180D01*
X120527370Y-66466556D01*
X120500672Y-66506460D01*
X120487205Y-66527002D01*
X120486357Y-66528396D01*
X120488001Y-66548078D01*
X120500465Y-66586333D01*
X120521268Y-66635929D01*
X120528682Y-66651768D01*
X120561034Y-66722330D01*
X120595548Y-66802393D01*
X120623585Y-66871669D01*
X120643788Y-66923085D01*
X120659835Y-66962159D01*
X120669108Y-66982581D01*
X120670261Y-66984154D01*
X120687316Y-66986761D01*
X120727518Y-66993903D01*
X120785522Y-67004563D01*
X120855983Y-67017725D01*
X120933555Y-67032373D01*
X121012892Y-67047489D01*
X121088651Y-67062058D01*
X121155484Y-67075062D01*
X121208048Y-67085485D01*
X121240996Y-67092310D01*
X121249077Y-67094239D01*
X121257425Y-67099002D01*
X121263726Y-67109758D01*
X121268265Y-67130138D01*
X121271324Y-67163774D01*
X121273187Y-67214295D01*
X121274138Y-67285332D01*
X121274460Y-67380516D01*
X121274477Y-67419532D01*
X121274477Y-67736839D01*
X121198277Y-67751879D01*
X121155883Y-67760035D01*
X121092620Y-67771939D01*
X121016182Y-67786156D01*
X120934263Y-67801250D01*
X120911620Y-67805395D01*
X120836026Y-67820093D01*
X120770173Y-67834545D01*
X120719586Y-67847415D01*
X120689794Y-67857362D01*
X120684832Y-67860327D01*
X120672646Y-67881323D01*
X120655173Y-67922007D01*
X120635797Y-67974362D01*
X120631954Y-67985640D01*
X120606559Y-68055563D01*
X120575037Y-68134458D01*
X120544189Y-68205306D01*
X120544037Y-68205635D01*
X120492667Y-68316773D01*
X120661619Y-68565293D01*
X120830572Y-68813812D01*
X120613649Y-69031098D01*
X120548039Y-69095766D01*
X120488199Y-69152773D01*
X120437487Y-69199073D01*
X120399266Y-69231624D01*
X120376895Y-69247383D01*
X120373686Y-69248383D01*
X120354846Y-69240509D01*
X120316400Y-69218618D01*
X120262550Y-69185307D01*
X120197496Y-69143171D01*
X120127160Y-69095983D01*
X120055775Y-69047850D01*
X119992128Y-69005968D01*
X119940261Y-68972911D01*
X119904215Y-68951258D01*
X119888087Y-68943583D01*
X119868409Y-68950077D01*
X119831095Y-68967190D01*
X119783841Y-68991366D01*
X119778832Y-68994053D01*
X119715197Y-69025967D01*
X119671561Y-69041619D01*
X119644422Y-69041785D01*
X119630277Y-69027244D01*
X119630195Y-69027040D01*
X119623125Y-69009819D01*
X119606262Y-68968939D01*
X119580915Y-68907565D01*
X119548391Y-68828859D01*
X119509998Y-68735987D01*
X119467042Y-68632112D01*
X119425442Y-68531542D01*
X119379724Y-68420556D01*
X119337746Y-68317743D01*
X119300768Y-68226255D01*
X119270047Y-68149241D01*
X119246842Y-68089855D01*
X119232410Y-68051249D01*
X119227963Y-68036840D01*
X119239116Y-68020312D01*
X119268289Y-67993970D01*
X119307191Y-67964927D01*
X119417977Y-67873079D01*
X119504571Y-67767799D01*
X119565936Y-67651306D01*
X119601035Y-67525816D01*
X119608828Y-67393547D01*
X119603163Y-67332497D01*
X119572298Y-67205835D01*
X119519140Y-67093981D01*
X119446987Y-66998041D01*
X119359137Y-66919116D01*
X119258885Y-66858310D01*
X119149530Y-66816727D01*
X119034367Y-66795468D01*
X118916695Y-66795639D01*
X118799810Y-66818341D01*
X118687009Y-66864678D01*
X118581589Y-66935753D01*
X118537588Y-66975951D01*
X118453199Y-67079169D01*
X118394442Y-67191965D01*
X118360924Y-67311050D01*
X118352255Y-67433135D01*
X118368043Y-67554933D01*
X118407898Y-67673156D01*
X118471427Y-67784515D01*
X118558241Y-67885724D01*
X118655249Y-67964927D01*
X118695657Y-67995202D01*
X118724202Y-68021259D01*
X118734477Y-68036865D01*
X118729097Y-68053883D01*
X118713795Y-68094540D01*
X118689832Y-68155682D01*
X118658464Y-68234159D01*
X118620952Y-68326820D01*
X118578553Y-68430512D01*
X118536883Y-68531566D01*
X118490910Y-68642647D01*
X118448327Y-68745581D01*
X118410441Y-68837205D01*
X118378560Y-68914356D01*
X118353991Y-68973871D01*
X118338040Y-69012584D01*
X118332130Y-69027040D01*
X118318168Y-69041725D01*
X118291160Y-69041682D01*
X118247633Y-69026139D01*
X118184110Y-68994324D01*
X118183608Y-68994053D01*
X118135780Y-68969363D01*
X118097117Y-68951378D01*
X118075315Y-68943654D01*
X118074353Y-68943583D01*
X118057941Y-68951418D01*
X118021707Y-68973205D01*
X117969694Y-69006368D01*
X117905945Y-69048331D01*
X117835280Y-69095983D01*
X117763336Y-69144231D01*
X117698494Y-69186191D01*
X117644955Y-69219267D01*
X117606917Y-69240861D01*
X117588753Y-69248383D01*
X117572028Y-69238497D01*
X117538400Y-69210866D01*
X117491230Y-69168535D01*
X117433878Y-69114545D01*
X117369704Y-69051939D01*
X117348717Y-69031023D01*
X117131719Y-68813663D01*
X117296888Y-68571260D01*
X117347084Y-68496821D01*
X117391139Y-68430012D01*
X117426582Y-68374705D01*
X117450939Y-68334769D01*
X117461742Y-68314076D01*
X117462058Y-68312603D01*
X117456363Y-68293098D01*
X117441046Y-68253862D01*
X117418757Y-68201470D01*
X117403113Y-68166395D01*
X117373861Y-68099241D01*
X117346314Y-68031398D01*
X117324957Y-67974074D01*
X117319155Y-67956612D01*
X117302672Y-67909978D01*
X117286560Y-67873945D01*
X117277710Y-67860327D01*
X117258180Y-67851992D01*
X117215554Y-67840177D01*
X117155365Y-67826221D01*
X117083142Y-67811462D01*
X117050820Y-67805395D01*
X116968742Y-67790313D01*
X116890015Y-67775709D01*
X116822329Y-67763020D01*
X116773380Y-67753682D01*
X116764163Y-67751879D01*
X116687963Y-67736839D01*
X116687963Y-67419532D01*
X116688134Y-67315194D01*
X116688836Y-67236253D01*
X116690354Y-67179078D01*
X116692969Y-67140039D01*
X116696966Y-67115505D01*
X116702629Y-67101845D01*
X116710240Y-67095429D01*
X116713363Y-67094239D01*
X116732198Y-67090020D01*
X116773808Y-67081602D01*
X116832850Y-67070001D01*
X116903977Y-67056235D01*
X116981845Y-67041320D01*
X117061107Y-67026272D01*
X117136418Y-67012109D01*
X117202433Y-66999846D01*
X117253807Y-66990501D01*
X117285195Y-66985090D01*
X117292179Y-66984154D01*
X117298505Y-66971636D01*
X117312510Y-66938286D01*
X117331575Y-66890417D01*
X117338854Y-66871669D01*
X117368216Y-66799235D01*
X117402791Y-66719210D01*
X117433757Y-66651768D01*
X117456543Y-66600199D01*
X117471702Y-66557825D01*
X117476762Y-66531874D01*
X117475956Y-66528396D01*
X117465261Y-66511976D01*
X117440840Y-66475457D01*
X117405315Y-66422727D01*
X117361307Y-66357675D01*
X117311437Y-66284191D01*
X117301576Y-66269685D01*
X117243712Y-66183744D01*
X117201176Y-66118301D01*
X117172274Y-66070344D01*
X117155310Y-66036860D01*
X117148587Y-66014835D01*
X117150410Y-66001257D01*
X117150456Y-66001171D01*
X117164806Y-65983337D01*
X117196543Y-65948857D01*
X117242230Y-65901308D01*
X117298424Y-65844262D01*
X117361688Y-65781295D01*
X117368822Y-65774267D01*
X117448550Y-65697060D01*
X117510077Y-65640370D01*
X117554641Y-65603150D01*
X117583477Y-65584355D01*
X117596178Y-65581929D01*
X117614714Y-65592511D01*
X117653181Y-65616956D01*
X117707606Y-65652652D01*
X117774018Y-65696987D01*
X117848445Y-65747351D01*
X117865821Y-65759200D01*
X118112517Y-65927666D01*
X118223926Y-65877102D01*
X118291677Y-65847635D01*
X118364403Y-65817999D01*
X118426923Y-65794370D01*
X118429677Y-65793398D01*
X118478580Y-65775497D01*
X118516277Y-65760360D01*
X118534645Y-65751250D01*
X118534676Y-65751224D01*
X118540505Y-65734757D01*
X118550412Y-65694259D01*
X118563415Y-65634282D01*
X118578529Y-65559380D01*
X118594772Y-65474104D01*
X118596101Y-65466915D01*
X118612395Y-65379054D01*
X118627353Y-65299300D01*
X118640011Y-65232721D01*
X118649406Y-65184387D01*
X118654574Y-65159365D01*
X118654664Y-65158983D01*
X118657809Y-65148339D01*
X118663924Y-65140302D01*
X118676673Y-65134507D01*
X118699720Y-65130587D01*
X118736729Y-65128175D01*
X118791364Y-65126905D01*
X118867287Y-65126411D01*
X118968164Y-65126326D01*
X118981220Y-65126326D01*
X119085130Y-65126388D01*
G37*
D10*
X119085130Y-65126388D02*
X119163674Y-65126818D01*
X119220518Y-65127982D01*
X119259325Y-65130247D01*
X119283758Y-65133980D01*
X119297482Y-65139546D01*
X119304160Y-65147313D01*
X119307456Y-65157645D01*
X119307776Y-65158983D01*
X119312782Y-65183119D01*
X119322049Y-65230741D01*
X119334612Y-65296781D01*
X119349507Y-65376168D01*
X119365771Y-65463836D01*
X119366339Y-65466915D01*
X119382630Y-65552829D01*
X119397872Y-65628736D01*
X119411081Y-65690085D01*
X119421274Y-65732322D01*
X119427468Y-65750895D01*
X119427763Y-65751224D01*
X119446008Y-65760293D01*
X119483625Y-65775407D01*
X119532491Y-65793302D01*
X119532763Y-65793398D01*
X119594313Y-65816533D01*
X119666877Y-65846005D01*
X119735277Y-65875637D01*
X119738514Y-65877102D01*
X119849922Y-65927666D01*
X120096619Y-65759200D01*
X120172297Y-65707843D01*
X120240851Y-65661929D01*
X120298308Y-65624070D01*
X120340696Y-65596877D01*
X120364045Y-65582961D01*
X120366262Y-65581929D01*
X120383230Y-65586524D01*
X120414921Y-65608695D01*
X120462572Y-65649487D01*
X120527418Y-65709945D01*
X120593617Y-65774267D01*
X120657434Y-65837652D01*
X120714549Y-65895491D01*
X120761525Y-65944215D01*
X120794923Y-65980250D01*
X120811305Y-66000024D01*
X120811914Y-66001042D01*
X120813725Y-66014612D01*
X120806903Y-66036773D01*
X120789760Y-66070518D01*
X120760613Y-66118840D01*
X120717775Y-66184732D01*
X120660668Y-66269557D01*
X120609986Y-66344217D01*
X120564681Y-66411180D01*
X120527370Y-66466556D01*
X120500672Y-66506460D01*
X120487205Y-66527002D01*
X120486357Y-66528396D01*
X120488001Y-66548078D01*
X120500465Y-66586333D01*
X120521268Y-66635929D01*
X120528682Y-66651768D01*
X120561034Y-66722330D01*
X120595548Y-66802393D01*
X120623585Y-66871669D01*
X120643788Y-66923085D01*
X120659835Y-66962159D01*
X120669108Y-66982581D01*
X120670261Y-66984154D01*
X120687316Y-66986761D01*
X120727518Y-66993903D01*
X120785522Y-67004563D01*
X120855983Y-67017725D01*
X120933555Y-67032373D01*
X121012892Y-67047489D01*
X121088651Y-67062058D01*
X121155484Y-67075062D01*
X121208048Y-67085485D01*
X121240996Y-67092310D01*
X121249077Y-67094239D01*
X121257425Y-67099002D01*
X121263726Y-67109758D01*
X121268265Y-67130138D01*
X121271324Y-67163774D01*
X121273187Y-67214295D01*
X121274138Y-67285332D01*
X121274460Y-67380516D01*
X121274477Y-67419532D01*
X121274477Y-67736839D01*
X121198277Y-67751879D01*
X121155883Y-67760035D01*
X121092620Y-67771939D01*
X121016182Y-67786156D01*
X120934263Y-67801250D01*
X120911620Y-67805395D01*
X120836026Y-67820093D01*
X120770173Y-67834545D01*
X120719586Y-67847415D01*
X120689794Y-67857362D01*
X120684832Y-67860327D01*
X120672646Y-67881323D01*
X120655173Y-67922007D01*
X120635797Y-67974362D01*
X120631954Y-67985640D01*
X120606559Y-68055563D01*
X120575037Y-68134458D01*
X120544189Y-68205306D01*
X120544037Y-68205635D01*
X120492667Y-68316773D01*
X120661619Y-68565293D01*
X120830572Y-68813812D01*
X120613649Y-69031098D01*
X120548039Y-69095766D01*
X120488199Y-69152773D01*
X120437487Y-69199073D01*
X120399266Y-69231624D01*
X120376895Y-69247383D01*
X120373686Y-69248383D01*
X120354846Y-69240509D01*
X120316400Y-69218618D01*
X120262550Y-69185307D01*
X120197496Y-69143171D01*
X120127160Y-69095983D01*
X120055775Y-69047850D01*
X119992128Y-69005968D01*
X119940261Y-68972911D01*
X119904215Y-68951258D01*
X119888087Y-68943583D01*
X119868409Y-68950077D01*
X119831095Y-68967190D01*
X119783841Y-68991366D01*
X119778832Y-68994053D01*
X119715197Y-69025967D01*
X119671561Y-69041619D01*
X119644422Y-69041785D01*
X119630277Y-69027244D01*
X119630195Y-69027040D01*
X119623125Y-69009819D01*
X119606262Y-68968939D01*
X119580915Y-68907565D01*
X119548391Y-68828859D01*
X119509998Y-68735987D01*
X119467042Y-68632112D01*
X119425442Y-68531542D01*
X119379724Y-68420556D01*
X119337746Y-68317743D01*
X119300768Y-68226255D01*
X119270047Y-68149241D01*
X119246842Y-68089855D01*
X119232410Y-68051249D01*
X119227963Y-68036840D01*
X119239116Y-68020312D01*
X119268289Y-67993970D01*
X119307191Y-67964927D01*
X119417977Y-67873079D01*
X119504571Y-67767799D01*
X119565936Y-67651306D01*
X119601035Y-67525816D01*
X119608828Y-67393547D01*
X119603163Y-67332497D01*
X119572298Y-67205835D01*
X119519140Y-67093981D01*
X119446987Y-66998041D01*
X119359137Y-66919116D01*
X119258885Y-66858310D01*
X119149530Y-66816727D01*
X119034367Y-66795468D01*
X118916695Y-66795639D01*
X118799810Y-66818341D01*
X118687009Y-66864678D01*
X118581589Y-66935753D01*
X118537588Y-66975951D01*
X118453199Y-67079169D01*
X118394442Y-67191965D01*
X118360924Y-67311050D01*
X118352255Y-67433135D01*
X118368043Y-67554933D01*
X118407898Y-67673156D01*
X118471427Y-67784515D01*
X118558241Y-67885724D01*
X118655249Y-67964927D01*
X118695657Y-67995202D01*
X118724202Y-68021259D01*
X118734477Y-68036865D01*
X118729097Y-68053883D01*
X118713795Y-68094540D01*
X118689832Y-68155682D01*
X118658464Y-68234159D01*
X118620952Y-68326820D01*
X118578553Y-68430512D01*
X118536883Y-68531566D01*
X118490910Y-68642647D01*
X118448327Y-68745581D01*
X118410441Y-68837205D01*
X118378560Y-68914356D01*
X118353991Y-68973871D01*
X118338040Y-69012584D01*
X118332130Y-69027040D01*
X118318168Y-69041725D01*
X118291160Y-69041682D01*
X118247633Y-69026139D01*
X118184110Y-68994324D01*
X118183608Y-68994053D01*
X118135780Y-68969363D01*
X118097117Y-68951378D01*
X118075315Y-68943654D01*
X118074353Y-68943583D01*
X118057941Y-68951418D01*
X118021707Y-68973205D01*
X117969694Y-69006368D01*
X117905945Y-69048331D01*
X117835280Y-69095983D01*
X117763336Y-69144231D01*
X117698494Y-69186191D01*
X117644955Y-69219267D01*
X117606917Y-69240861D01*
X117588753Y-69248383D01*
X117572028Y-69238497D01*
X117538400Y-69210866D01*
X117491230Y-69168535D01*
X117433878Y-69114545D01*
X117369704Y-69051939D01*
X117348717Y-69031023D01*
X117131719Y-68813663D01*
X117296888Y-68571260D01*
X117347084Y-68496821D01*
X117391139Y-68430012D01*
X117426582Y-68374705D01*
X117450939Y-68334769D01*
X117461742Y-68314076D01*
X117462058Y-68312603D01*
X117456363Y-68293098D01*
X117441046Y-68253862D01*
X117418757Y-68201470D01*
X117403113Y-68166395D01*
X117373861Y-68099241D01*
X117346314Y-68031398D01*
X117324957Y-67974074D01*
X117319155Y-67956612D01*
X117302672Y-67909978D01*
X117286560Y-67873945D01*
X117277710Y-67860327D01*
X117258180Y-67851992D01*
X117215554Y-67840177D01*
X117155365Y-67826221D01*
X117083142Y-67811462D01*
X117050820Y-67805395D01*
X116968742Y-67790313D01*
X116890015Y-67775709D01*
X116822329Y-67763020D01*
X116773380Y-67753682D01*
X116764163Y-67751879D01*
X116687963Y-67736839D01*
X116687963Y-67419532D01*
X116688134Y-67315194D01*
X116688836Y-67236253D01*
X116690354Y-67179078D01*
X116692969Y-67140039D01*
X116696966Y-67115505D01*
X116702629Y-67101845D01*
X116710240Y-67095429D01*
X116713363Y-67094239D01*
X116732198Y-67090020D01*
X116773808Y-67081602D01*
X116832850Y-67070001D01*
X116903977Y-67056235D01*
X116981845Y-67041320D01*
X117061107Y-67026272D01*
X117136418Y-67012109D01*
X117202433Y-66999846D01*
X117253807Y-66990501D01*
X117285195Y-66985090D01*
X117292179Y-66984154D01*
X117298505Y-66971636D01*
X117312510Y-66938286D01*
X117331575Y-66890417D01*
X117338854Y-66871669D01*
X117368216Y-66799235D01*
X117402791Y-66719210D01*
X117433757Y-66651768D01*
X117456543Y-66600199D01*
X117471702Y-66557825D01*
X117476762Y-66531874D01*
X117475956Y-66528396D01*
X117465261Y-66511976D01*
X117440840Y-66475457D01*
X117405315Y-66422727D01*
X117361307Y-66357675D01*
X117311437Y-66284191D01*
X117301576Y-66269685D01*
X117243712Y-66183744D01*
X117201176Y-66118301D01*
X117172274Y-66070344D01*
X117155310Y-66036860D01*
X117148587Y-66014835D01*
X117150410Y-66001257D01*
X117150456Y-66001171D01*
X117164806Y-65983337D01*
X117196543Y-65948857D01*
X117242230Y-65901308D01*
X117298424Y-65844262D01*
X117361688Y-65781295D01*
X117368822Y-65774267D01*
X117448550Y-65697060D01*
X117510077Y-65640370D01*
X117554641Y-65603150D01*
X117583477Y-65584355D01*
X117596178Y-65581929D01*
X117614714Y-65592511D01*
X117653181Y-65616956D01*
X117707606Y-65652652D01*
X117774018Y-65696987D01*
X117848445Y-65747351D01*
X117865821Y-65759200D01*
X118112517Y-65927666D01*
X118223926Y-65877102D01*
X118291677Y-65847635D01*
X118364403Y-65817999D01*
X118426923Y-65794370D01*
X118429677Y-65793398D01*
X118478580Y-65775497D01*
X118516277Y-65760360D01*
X118534645Y-65751250D01*
X118534676Y-65751224D01*
X118540505Y-65734757D01*
X118550412Y-65694259D01*
X118563415Y-65634282D01*
X118578529Y-65559380D01*
X118594772Y-65474104D01*
X118596101Y-65466915D01*
X118612395Y-65379054D01*
X118627353Y-65299300D01*
X118640011Y-65232721D01*
X118649406Y-65184387D01*
X118654574Y-65159365D01*
X118654664Y-65158983D01*
X118657809Y-65148339D01*
X118663924Y-65140302D01*
X118676673Y-65134507D01*
X118699720Y-65130587D01*
X118736729Y-65128175D01*
X118791364Y-65126905D01*
X118867287Y-65126411D01*
X118968164Y-65126326D01*
X118981220Y-65126326D01*
X119085130Y-65126388D01*
D11*
X111828580Y-63522860D03*
X111833660Y-71135240D03*
X108955840Y-63522860D03*
X128856740Y-63535560D03*
X108960920Y-66065400D03*
X108968540Y-71137780D03*
X126184660Y-63533020D03*
X111828580Y-66065400D03*
X126207520Y-71155560D03*
X126159260Y-68607940D03*
X111823500Y-68597780D03*
X108971080Y-68590160D03*
X128866900Y-71163180D03*
X128869440Y-66075560D03*
X128859280Y-68605400D03*
X126204980Y-66070480D03*
D12*
X122776161Y-63521741D03*
X122776161Y-66061741D03*
X122776161Y-68601741D03*
X122776161Y-71141741D03*
X115156161Y-71141741D03*
X115156161Y-68601741D03*
X115156161Y-66061741D03*
D13*
X115156161Y-63521741D03*
D14*
X108955840Y-63522860D02*
X111828580Y-63522860D01*
D15*
X111828580Y-63522860D02*
X115156161Y-63521741D01*
X111828580Y-66065400D02*
X115156161Y-66061741D01*
D16*
X108960920Y-66065400D02*
X111828580Y-66065400D01*
X108971080Y-68590160D02*
X111823500Y-68597780D01*
X111823500Y-68597780D02*
X115156161Y-68601741D01*
X108968540Y-71137780D02*
X111833660Y-71135240D01*
X111833660Y-71135240D02*
X115156161Y-71141741D01*
X122776161Y-63521741D02*
X126184660Y-63533020D01*
X126184660Y-63533020D02*
X128856740Y-63535560D01*
X122776161Y-66061741D02*
X126204980Y-66070480D01*
X126204980Y-66070480D02*
X128869440Y-66075560D01*
X122776161Y-68601741D02*
X126159260Y-68607940D01*
X126159260Y-68607940D02*
X128859280Y-68605400D01*
X122776161Y-71141741D02*
X126207520Y-71155560D01*
X126207520Y-71155560D02*
X128866900Y-71163180D01*
M02*
