G04 #@! TF.GenerationSoftware,KiCad,Pcbnew,(5.99.0-812-g5d5363396-dirty)*
G04 #@! TF.CreationDate,2020-02-06T23:45:32+01:00*
G04 #@! TF.ProjectId,flex-dip,666c6578-2d64-4697-902e-6b696361645f,rev?*
G04 #@! TF.SameCoordinates,Original*
G04 #@! TF.FileFunction,Soldermask,Bot*
G04 #@! TF.FilePolarity,Negative*
%FSLAX46Y46*%
G04 Gerber Fmt 4.6, Leading zero omitted, Abs format (unit mm)*
G04 Created by KiCad (PCBNEW (5.99.0-812-g5d5363396-dirty)) date 2020-02-06 23:45:32*
%MOMM*%
%LPD*%
G04 APERTURE LIST*
G04 APERTURE END LIST*
G36*
X128963165Y-70215744D02*
G01*
X129003982Y-70217740D01*
X129052572Y-70229585D01*
X129107854Y-70238143D01*
X129146240Y-70252418D01*
X129180286Y-70260718D01*
X129231044Y-70283957D01*
X129288937Y-70305487D01*
X129318723Y-70324100D01*
X129345286Y-70336261D01*
X129395465Y-70372053D01*
X129452780Y-70407868D01*
X129473986Y-70428062D01*
X129493020Y-70441639D01*
X129539524Y-70490473D01*
X129592690Y-70541102D01*
X129606069Y-70560352D01*
X129618167Y-70573056D01*
X129657739Y-70634696D01*
X129702952Y-70699749D01*
X129709881Y-70715914D01*
X129716200Y-70725758D01*
X129745544Y-70799124D01*
X129779062Y-70877326D01*
X129781422Y-70888825D01*
X129783593Y-70894252D01*
X129799612Y-70977440D01*
X129817910Y-71066580D01*
X129817834Y-71088406D01*
X129817388Y-71259058D01*
X129817236Y-71259826D01*
X129817213Y-71266417D01*
X129798477Y-71354562D01*
X129782172Y-71436905D01*
X129779658Y-71443095D01*
X129777044Y-71455395D01*
X129743315Y-71532597D01*
X129713900Y-71605039D01*
X129707076Y-71615547D01*
X129699697Y-71632437D01*
X129654503Y-71696503D01*
X129615067Y-71757230D01*
X129602322Y-71770474D01*
X129588330Y-71790309D01*
X129535426Y-71839989D01*
X129489232Y-71887992D01*
X129469443Y-71901951D01*
X129447493Y-71922564D01*
X129390642Y-71957539D01*
X129340949Y-71992593D01*
X129313561Y-72004959D01*
X129282939Y-72023798D01*
X129225690Y-72044635D01*
X129175560Y-72067270D01*
X129140656Y-72075585D01*
X129101390Y-72089877D01*
X129046873Y-72097927D01*
X128999030Y-72109325D01*
X128957369Y-72111144D01*
X128910263Y-72118100D01*
X128861062Y-72115349D01*
X128817734Y-72117241D01*
X128770717Y-72110298D01*
X128717364Y-72107315D01*
X128675355Y-72096216D01*
X128638213Y-72090731D01*
X128587874Y-72073102D01*
X128530573Y-72057963D01*
X128496875Y-72041235D01*
X128466943Y-72030753D01*
X128415824Y-72001001D01*
X128357521Y-71972059D01*
X128332474Y-71952490D01*
X128310107Y-71939472D01*
X128261161Y-71896774D01*
X128205278Y-71853113D01*
X128188463Y-71833356D01*
X128173355Y-71820176D01*
X128129785Y-71764409D01*
X128080061Y-71705984D01*
X128070381Y-71688377D01*
X128061635Y-71677182D01*
X128026758Y-71609025D01*
X127986986Y-71536681D01*
X127982773Y-71523073D01*
X127978968Y-71515636D01*
X127956005Y-71436598D01*
X127929855Y-71352121D01*
X127929036Y-71343773D01*
X127928339Y-71341372D01*
X127920234Y-71253998D01*
X127911002Y-71159843D01*
X127920782Y-71066789D01*
X127929284Y-70980082D01*
X127930232Y-70976881D01*
X127931197Y-70967701D01*
X127957684Y-70884203D01*
X127980825Y-70806080D01*
X127985055Y-70797919D01*
X127989615Y-70783545D01*
X128029492Y-70712192D01*
X128064337Y-70644971D01*
X128073654Y-70633173D01*
X128083869Y-70614896D01*
X128133475Y-70557426D01*
X128176806Y-70502560D01*
X128192609Y-70488920D01*
X128210110Y-70468644D01*
X128265645Y-70425877D01*
X128314178Y-70383984D01*
X128337335Y-70370668D01*
X128363181Y-70350764D01*
X128420936Y-70322595D01*
X128471492Y-70293524D01*
X128502268Y-70282927D01*
X128536828Y-70266071D01*
X128593425Y-70251539D01*
X128643071Y-70234445D01*
X128681061Y-70229038D01*
X128723959Y-70218024D01*
X128776513Y-70215454D01*
X128822730Y-70208876D01*
X128866867Y-70211034D01*
X128916928Y-70208586D01*
X128963165Y-70215744D01*
G37*
G36*
X126303785Y-70208124D02*
G01*
X126344602Y-70210120D01*
X126393192Y-70221965D01*
X126448474Y-70230523D01*
X126486860Y-70244798D01*
X126520906Y-70253098D01*
X126571664Y-70276337D01*
X126629557Y-70297867D01*
X126659343Y-70316480D01*
X126685906Y-70328641D01*
X126736085Y-70364433D01*
X126793400Y-70400248D01*
X126814606Y-70420442D01*
X126833640Y-70434019D01*
X126880144Y-70482853D01*
X126933310Y-70533482D01*
X126946689Y-70552732D01*
X126958787Y-70565436D01*
X126998359Y-70627076D01*
X127043572Y-70692129D01*
X127050501Y-70708294D01*
X127056820Y-70718138D01*
X127086164Y-70791504D01*
X127119682Y-70869706D01*
X127122042Y-70881205D01*
X127124213Y-70886632D01*
X127140232Y-70969820D01*
X127158530Y-71058960D01*
X127158454Y-71080786D01*
X127158008Y-71251438D01*
X127157856Y-71252206D01*
X127157833Y-71258797D01*
X127139097Y-71346942D01*
X127122792Y-71429285D01*
X127120278Y-71435475D01*
X127117664Y-71447775D01*
X127083935Y-71524977D01*
X127054520Y-71597419D01*
X127047696Y-71607927D01*
X127040317Y-71624817D01*
X126995123Y-71688883D01*
X126955687Y-71749610D01*
X126942942Y-71762854D01*
X126928950Y-71782689D01*
X126876046Y-71832369D01*
X126829852Y-71880372D01*
X126810063Y-71894331D01*
X126788113Y-71914944D01*
X126731262Y-71949919D01*
X126681569Y-71984973D01*
X126654181Y-71997339D01*
X126623559Y-72016178D01*
X126566310Y-72037015D01*
X126516180Y-72059650D01*
X126481276Y-72067965D01*
X126442010Y-72082257D01*
X126387493Y-72090307D01*
X126339650Y-72101705D01*
X126297989Y-72103524D01*
X126250883Y-72110480D01*
X126201682Y-72107729D01*
X126158354Y-72109621D01*
X126111337Y-72102678D01*
X126057984Y-72099695D01*
X126015975Y-72088596D01*
X125978833Y-72083111D01*
X125928494Y-72065482D01*
X125871193Y-72050343D01*
X125837495Y-72033615D01*
X125807563Y-72023133D01*
X125756444Y-71993381D01*
X125698141Y-71964439D01*
X125673094Y-71944870D01*
X125650727Y-71931852D01*
X125601781Y-71889154D01*
X125545898Y-71845493D01*
X125529083Y-71825736D01*
X125513975Y-71812556D01*
X125470405Y-71756789D01*
X125420681Y-71698364D01*
X125411001Y-71680757D01*
X125402255Y-71669562D01*
X125367378Y-71601405D01*
X125327606Y-71529061D01*
X125323393Y-71515453D01*
X125319588Y-71508016D01*
X125296625Y-71428978D01*
X125270475Y-71344501D01*
X125269656Y-71336153D01*
X125268959Y-71333752D01*
X125260854Y-71246378D01*
X125251622Y-71152223D01*
X125261402Y-71059169D01*
X125269904Y-70972462D01*
X125270852Y-70969261D01*
X125271817Y-70960081D01*
X125298304Y-70876583D01*
X125321445Y-70798460D01*
X125325675Y-70790299D01*
X125330235Y-70775925D01*
X125370112Y-70704572D01*
X125404957Y-70637351D01*
X125414274Y-70625553D01*
X125424489Y-70607276D01*
X125474095Y-70549806D01*
X125517426Y-70494940D01*
X125533229Y-70481300D01*
X125550730Y-70461024D01*
X125606265Y-70418257D01*
X125654798Y-70376364D01*
X125677955Y-70363048D01*
X125703801Y-70343144D01*
X125761556Y-70314975D01*
X125812112Y-70285904D01*
X125842888Y-70275307D01*
X125877448Y-70258451D01*
X125934045Y-70243919D01*
X125983691Y-70226825D01*
X126021681Y-70221418D01*
X126064579Y-70210404D01*
X126117133Y-70207834D01*
X126163350Y-70201256D01*
X126207487Y-70203414D01*
X126257548Y-70200966D01*
X126303785Y-70208124D01*
G37*
G36*
X109064805Y-70190344D02*
G01*
X109105622Y-70192340D01*
X109154212Y-70204185D01*
X109209494Y-70212743D01*
X109247880Y-70227018D01*
X109281926Y-70235318D01*
X109332684Y-70258557D01*
X109390577Y-70280087D01*
X109420363Y-70298700D01*
X109446926Y-70310861D01*
X109497105Y-70346653D01*
X109554420Y-70382468D01*
X109575626Y-70402662D01*
X109594660Y-70416239D01*
X109641164Y-70465073D01*
X109694330Y-70515702D01*
X109707709Y-70534952D01*
X109719807Y-70547656D01*
X109759379Y-70609296D01*
X109804592Y-70674349D01*
X109811521Y-70690514D01*
X109817840Y-70700358D01*
X109847184Y-70773724D01*
X109880702Y-70851926D01*
X109883062Y-70863425D01*
X109885233Y-70868852D01*
X109901252Y-70952040D01*
X109919550Y-71041180D01*
X109919474Y-71063006D01*
X109919028Y-71233658D01*
X109918876Y-71234426D01*
X109918853Y-71241017D01*
X109900117Y-71329162D01*
X109883812Y-71411505D01*
X109881298Y-71417695D01*
X109878684Y-71429995D01*
X109844955Y-71507197D01*
X109815540Y-71579639D01*
X109808716Y-71590147D01*
X109801337Y-71607037D01*
X109756143Y-71671103D01*
X109716707Y-71731830D01*
X109703962Y-71745074D01*
X109689970Y-71764909D01*
X109637066Y-71814589D01*
X109590872Y-71862592D01*
X109571083Y-71876551D01*
X109549133Y-71897164D01*
X109492282Y-71932139D01*
X109442589Y-71967193D01*
X109415201Y-71979559D01*
X109384579Y-71998398D01*
X109327330Y-72019235D01*
X109277200Y-72041870D01*
X109242296Y-72050185D01*
X109203030Y-72064477D01*
X109148513Y-72072527D01*
X109100670Y-72083925D01*
X109059009Y-72085744D01*
X109011903Y-72092700D01*
X108962702Y-72089949D01*
X108919374Y-72091841D01*
X108872357Y-72084898D01*
X108819004Y-72081915D01*
X108776995Y-72070816D01*
X108739853Y-72065331D01*
X108689514Y-72047702D01*
X108632213Y-72032563D01*
X108598515Y-72015835D01*
X108568583Y-72005353D01*
X108517464Y-71975601D01*
X108459161Y-71946659D01*
X108434114Y-71927090D01*
X108411747Y-71914072D01*
X108362801Y-71871374D01*
X108306918Y-71827713D01*
X108290103Y-71807956D01*
X108274995Y-71794776D01*
X108231425Y-71739009D01*
X108181701Y-71680584D01*
X108172021Y-71662977D01*
X108163275Y-71651782D01*
X108128398Y-71583625D01*
X108088626Y-71511281D01*
X108084413Y-71497673D01*
X108080608Y-71490236D01*
X108057645Y-71411198D01*
X108031495Y-71326721D01*
X108030676Y-71318373D01*
X108029979Y-71315972D01*
X108021874Y-71228598D01*
X108012642Y-71134443D01*
X108022422Y-71041389D01*
X108030924Y-70954682D01*
X108031872Y-70951481D01*
X108032837Y-70942301D01*
X108059324Y-70858803D01*
X108082465Y-70780680D01*
X108086695Y-70772519D01*
X108091255Y-70758145D01*
X108131132Y-70686792D01*
X108165977Y-70619571D01*
X108175294Y-70607773D01*
X108185509Y-70589496D01*
X108235115Y-70532026D01*
X108278446Y-70477160D01*
X108294249Y-70463520D01*
X108311750Y-70443244D01*
X108367285Y-70400477D01*
X108415818Y-70358584D01*
X108438975Y-70345268D01*
X108464821Y-70325364D01*
X108522576Y-70297195D01*
X108573132Y-70268124D01*
X108603908Y-70257527D01*
X108638468Y-70240671D01*
X108695065Y-70226139D01*
X108744711Y-70209045D01*
X108782701Y-70203638D01*
X108825599Y-70192624D01*
X108878153Y-70190054D01*
X108924370Y-70183476D01*
X108968507Y-70185634D01*
X109018568Y-70183186D01*
X109064805Y-70190344D01*
G37*
G36*
X111929925Y-70187804D02*
G01*
X111970742Y-70189800D01*
X112019332Y-70201645D01*
X112074614Y-70210203D01*
X112113000Y-70224478D01*
X112147046Y-70232778D01*
X112197804Y-70256017D01*
X112255697Y-70277547D01*
X112285483Y-70296160D01*
X112312046Y-70308321D01*
X112362225Y-70344113D01*
X112419540Y-70379928D01*
X112440746Y-70400122D01*
X112459780Y-70413699D01*
X112506284Y-70462533D01*
X112559450Y-70513162D01*
X112572829Y-70532412D01*
X112584927Y-70545116D01*
X112624499Y-70606756D01*
X112669712Y-70671809D01*
X112676641Y-70687974D01*
X112682960Y-70697818D01*
X112712304Y-70771184D01*
X112745822Y-70849386D01*
X112748182Y-70860885D01*
X112750353Y-70866312D01*
X112766372Y-70949500D01*
X112784670Y-71038640D01*
X112784594Y-71060466D01*
X112784148Y-71231118D01*
X112783996Y-71231886D01*
X112783973Y-71238477D01*
X112765237Y-71326622D01*
X112748932Y-71408965D01*
X112746418Y-71415155D01*
X112743804Y-71427455D01*
X112710075Y-71504657D01*
X112680660Y-71577099D01*
X112673836Y-71587607D01*
X112666457Y-71604497D01*
X112621263Y-71668563D01*
X112581827Y-71729290D01*
X112569082Y-71742534D01*
X112555090Y-71762369D01*
X112502186Y-71812049D01*
X112455992Y-71860052D01*
X112436203Y-71874011D01*
X112414253Y-71894624D01*
X112357402Y-71929599D01*
X112307709Y-71964653D01*
X112280321Y-71977019D01*
X112249699Y-71995858D01*
X112192450Y-72016695D01*
X112142320Y-72039330D01*
X112107416Y-72047645D01*
X112068150Y-72061937D01*
X112013633Y-72069987D01*
X111965790Y-72081385D01*
X111924129Y-72083204D01*
X111877023Y-72090160D01*
X111827822Y-72087409D01*
X111784494Y-72089301D01*
X111737477Y-72082358D01*
X111684124Y-72079375D01*
X111642115Y-72068276D01*
X111604973Y-72062791D01*
X111554634Y-72045162D01*
X111497333Y-72030023D01*
X111463635Y-72013295D01*
X111433703Y-72002813D01*
X111382584Y-71973061D01*
X111324281Y-71944119D01*
X111299234Y-71924550D01*
X111276867Y-71911532D01*
X111227921Y-71868834D01*
X111172038Y-71825173D01*
X111155223Y-71805416D01*
X111140115Y-71792236D01*
X111096545Y-71736469D01*
X111046821Y-71678044D01*
X111037141Y-71660437D01*
X111028395Y-71649242D01*
X110993518Y-71581085D01*
X110953746Y-71508741D01*
X110949533Y-71495133D01*
X110945728Y-71487696D01*
X110922765Y-71408658D01*
X110896615Y-71324181D01*
X110895796Y-71315833D01*
X110895099Y-71313432D01*
X110886994Y-71226058D01*
X110877762Y-71131903D01*
X110887542Y-71038849D01*
X110896044Y-70952142D01*
X110896992Y-70948941D01*
X110897957Y-70939761D01*
X110924444Y-70856263D01*
X110947585Y-70778140D01*
X110951815Y-70769979D01*
X110956375Y-70755605D01*
X110996252Y-70684252D01*
X111031097Y-70617031D01*
X111040414Y-70605233D01*
X111050629Y-70586956D01*
X111100235Y-70529486D01*
X111143566Y-70474620D01*
X111159369Y-70460980D01*
X111176870Y-70440704D01*
X111232405Y-70397937D01*
X111280938Y-70356044D01*
X111304095Y-70342728D01*
X111329941Y-70322824D01*
X111387696Y-70294655D01*
X111438252Y-70265584D01*
X111469028Y-70254987D01*
X111503588Y-70238131D01*
X111560185Y-70223599D01*
X111609831Y-70206505D01*
X111647821Y-70201098D01*
X111690719Y-70190084D01*
X111743273Y-70187514D01*
X111789490Y-70180936D01*
X111833627Y-70183094D01*
X111883688Y-70180646D01*
X111929925Y-70187804D01*
G37*
G36*
X122779137Y-70289567D02*
G01*
X122820927Y-70287523D01*
X122865217Y-70294380D01*
X122915971Y-70297217D01*
X122956324Y-70308484D01*
X122991782Y-70313973D01*
X123039365Y-70331669D01*
X123094059Y-70346940D01*
X123125783Y-70363808D01*
X123153820Y-70374235D01*
X123201918Y-70404290D01*
X123257314Y-70433745D01*
X123280129Y-70453162D01*
X123300432Y-70465849D01*
X123345802Y-70509054D01*
X123398122Y-70553582D01*
X123412624Y-70572688D01*
X123425633Y-70585076D01*
X123464777Y-70641396D01*
X123509912Y-70700859D01*
X123517463Y-70717200D01*
X123524303Y-70727042D01*
X123553669Y-70795558D01*
X123587468Y-70868706D01*
X123590046Y-70880433D01*
X123592408Y-70885943D01*
X123608590Y-70964777D01*
X123627172Y-71049292D01*
X123626506Y-71240129D01*
X123607342Y-71324479D01*
X123590604Y-71403226D01*
X123588202Y-71408723D01*
X123585542Y-71420433D01*
X123551230Y-71493350D01*
X123521388Y-71561656D01*
X123514479Y-71571450D01*
X123506816Y-71587735D01*
X123461275Y-71646871D01*
X123421731Y-71702928D01*
X123408633Y-71715228D01*
X123394001Y-71734228D01*
X123341388Y-71778376D01*
X123295705Y-71821275D01*
X123275308Y-71833823D01*
X123252360Y-71853079D01*
X123196761Y-71882146D01*
X123148454Y-71911864D01*
X123120345Y-71922095D01*
X123088502Y-71938742D01*
X123033695Y-71953633D01*
X122985992Y-71970995D01*
X122950501Y-71976236D01*
X122910072Y-71987220D01*
X122859300Y-71989703D01*
X122814964Y-71996250D01*
X122773188Y-71993915D01*
X122725394Y-71996252D01*
X122681153Y-71988769D01*
X122642350Y-71986600D01*
X122596141Y-71974391D01*
X122543084Y-71965417D01*
X122507000Y-71950838D01*
X122475196Y-71942435D01*
X122427058Y-71918540D01*
X122371649Y-71896153D01*
X122344472Y-71877545D01*
X122320343Y-71865567D01*
X122273289Y-71828804D01*
X122219087Y-71791691D01*
X122200630Y-71772036D01*
X122184111Y-71759130D01*
X122141561Y-71709134D01*
X122092515Y-71656905D01*
X122081769Y-71638879D01*
X122072057Y-71627467D01*
X122037562Y-71564722D01*
X121997839Y-71498085D01*
X121993104Y-71483852D01*
X121988771Y-71475970D01*
X121965853Y-71401933D01*
X121939475Y-71322639D01*
X121938533Y-71313675D01*
X121937647Y-71310813D01*
X121929508Y-71227809D01*
X121920148Y-71138753D01*
X121930128Y-71049785D01*
X121938848Y-70966819D01*
X121939754Y-70963961D01*
X121940759Y-70955006D01*
X121967691Y-70875894D01*
X121991124Y-70802022D01*
X121995511Y-70794173D01*
X122000345Y-70779972D01*
X122040543Y-70713598D01*
X122075465Y-70651112D01*
X122085253Y-70639772D01*
X122096128Y-70621816D01*
X122145546Y-70569922D01*
X122188434Y-70520236D01*
X122205040Y-70507448D01*
X122223638Y-70487918D01*
X122278113Y-70451174D01*
X122325411Y-70414750D01*
X122349619Y-70402943D01*
X122376926Y-70384524D01*
X122432480Y-70362528D01*
X122480794Y-70338964D01*
X122512664Y-70330781D01*
X122548840Y-70316458D01*
X122601956Y-70307855D01*
X122648249Y-70295969D01*
X122687064Y-70294071D01*
X122731360Y-70286896D01*
X122779137Y-70289567D01*
G37*
G36*
X115159137Y-70289567D02*
G01*
X115200927Y-70287523D01*
X115245217Y-70294380D01*
X115295971Y-70297217D01*
X115336324Y-70308484D01*
X115371782Y-70313973D01*
X115419365Y-70331669D01*
X115474059Y-70346940D01*
X115505783Y-70363808D01*
X115533820Y-70374235D01*
X115581918Y-70404290D01*
X115637314Y-70433745D01*
X115660129Y-70453162D01*
X115680432Y-70465849D01*
X115725802Y-70509054D01*
X115778122Y-70553582D01*
X115792624Y-70572688D01*
X115805633Y-70585076D01*
X115844777Y-70641396D01*
X115889912Y-70700859D01*
X115897463Y-70717200D01*
X115904303Y-70727042D01*
X115933669Y-70795558D01*
X115967468Y-70868706D01*
X115970046Y-70880433D01*
X115972408Y-70885943D01*
X115988590Y-70964777D01*
X116007172Y-71049292D01*
X116006506Y-71240129D01*
X115987342Y-71324479D01*
X115970604Y-71403226D01*
X115968202Y-71408723D01*
X115965542Y-71420433D01*
X115931230Y-71493350D01*
X115901388Y-71561656D01*
X115894479Y-71571450D01*
X115886816Y-71587735D01*
X115841275Y-71646871D01*
X115801731Y-71702928D01*
X115788633Y-71715228D01*
X115774001Y-71734228D01*
X115721388Y-71778376D01*
X115675705Y-71821275D01*
X115655308Y-71833823D01*
X115632360Y-71853079D01*
X115576761Y-71882146D01*
X115528454Y-71911864D01*
X115500345Y-71922095D01*
X115468502Y-71938742D01*
X115413695Y-71953633D01*
X115365992Y-71970995D01*
X115330501Y-71976236D01*
X115290072Y-71987220D01*
X115239300Y-71989703D01*
X115194964Y-71996250D01*
X115153188Y-71993915D01*
X115105394Y-71996252D01*
X115061153Y-71988769D01*
X115022350Y-71986600D01*
X114976141Y-71974391D01*
X114923084Y-71965417D01*
X114887000Y-71950838D01*
X114855196Y-71942435D01*
X114807058Y-71918540D01*
X114751649Y-71896153D01*
X114724472Y-71877545D01*
X114700343Y-71865567D01*
X114653289Y-71828804D01*
X114599087Y-71791691D01*
X114580630Y-71772036D01*
X114564111Y-71759130D01*
X114521561Y-71709134D01*
X114472515Y-71656905D01*
X114461769Y-71638879D01*
X114452057Y-71627467D01*
X114417562Y-71564722D01*
X114377839Y-71498085D01*
X114373104Y-71483852D01*
X114368771Y-71475970D01*
X114345853Y-71401933D01*
X114319475Y-71322639D01*
X114318533Y-71313675D01*
X114317647Y-71310813D01*
X114309508Y-71227809D01*
X114300148Y-71138753D01*
X114310128Y-71049785D01*
X114318848Y-70966819D01*
X114319754Y-70963961D01*
X114320759Y-70955006D01*
X114347691Y-70875894D01*
X114371124Y-70802022D01*
X114375511Y-70794173D01*
X114380345Y-70779972D01*
X114420543Y-70713598D01*
X114455465Y-70651112D01*
X114465253Y-70639772D01*
X114476128Y-70621816D01*
X114525546Y-70569922D01*
X114568434Y-70520236D01*
X114585040Y-70507448D01*
X114603638Y-70487918D01*
X114658113Y-70451174D01*
X114705411Y-70414750D01*
X114729619Y-70402943D01*
X114756926Y-70384524D01*
X114812480Y-70362528D01*
X114860794Y-70338964D01*
X114892664Y-70330781D01*
X114928840Y-70316458D01*
X114981956Y-70307855D01*
X115028249Y-70295969D01*
X115067064Y-70294071D01*
X115111360Y-70286896D01*
X115159137Y-70289567D01*
G37*
G36*
X126255525Y-67660504D02*
G01*
X126296342Y-67662500D01*
X126344932Y-67674345D01*
X126400214Y-67682903D01*
X126438600Y-67697178D01*
X126472646Y-67705478D01*
X126523404Y-67728717D01*
X126581297Y-67750247D01*
X126611083Y-67768860D01*
X126637646Y-67781021D01*
X126687825Y-67816813D01*
X126745140Y-67852628D01*
X126766346Y-67872822D01*
X126785380Y-67886399D01*
X126831884Y-67935233D01*
X126885050Y-67985862D01*
X126898429Y-68005112D01*
X126910527Y-68017816D01*
X126950099Y-68079456D01*
X126995312Y-68144509D01*
X127002241Y-68160674D01*
X127008560Y-68170518D01*
X127037904Y-68243884D01*
X127071422Y-68322086D01*
X127073782Y-68333585D01*
X127075953Y-68339012D01*
X127091972Y-68422200D01*
X127110270Y-68511340D01*
X127110194Y-68533166D01*
X127109748Y-68703818D01*
X127109596Y-68704586D01*
X127109573Y-68711177D01*
X127090837Y-68799322D01*
X127074532Y-68881665D01*
X127072018Y-68887855D01*
X127069404Y-68900155D01*
X127035675Y-68977357D01*
X127006260Y-69049799D01*
X126999436Y-69060307D01*
X126992057Y-69077197D01*
X126946863Y-69141263D01*
X126907427Y-69201990D01*
X126894682Y-69215234D01*
X126880690Y-69235069D01*
X126827786Y-69284749D01*
X126781592Y-69332752D01*
X126761803Y-69346711D01*
X126739853Y-69367324D01*
X126683002Y-69402299D01*
X126633309Y-69437353D01*
X126605921Y-69449719D01*
X126575299Y-69468558D01*
X126518050Y-69489395D01*
X126467920Y-69512030D01*
X126433016Y-69520345D01*
X126393750Y-69534637D01*
X126339233Y-69542687D01*
X126291390Y-69554085D01*
X126249729Y-69555904D01*
X126202623Y-69562860D01*
X126153422Y-69560109D01*
X126110094Y-69562001D01*
X126063077Y-69555058D01*
X126009724Y-69552075D01*
X125967715Y-69540976D01*
X125930573Y-69535491D01*
X125880234Y-69517862D01*
X125822933Y-69502723D01*
X125789235Y-69485995D01*
X125759303Y-69475513D01*
X125708184Y-69445761D01*
X125649881Y-69416819D01*
X125624834Y-69397250D01*
X125602467Y-69384232D01*
X125553521Y-69341534D01*
X125497638Y-69297873D01*
X125480823Y-69278116D01*
X125465715Y-69264936D01*
X125422145Y-69209169D01*
X125372421Y-69150744D01*
X125362741Y-69133137D01*
X125353995Y-69121942D01*
X125319118Y-69053785D01*
X125279346Y-68981441D01*
X125275133Y-68967833D01*
X125271328Y-68960396D01*
X125248365Y-68881358D01*
X125222215Y-68796881D01*
X125221396Y-68788533D01*
X125220699Y-68786132D01*
X125212594Y-68698758D01*
X125203362Y-68604603D01*
X125213142Y-68511549D01*
X125221644Y-68424842D01*
X125222592Y-68421641D01*
X125223557Y-68412461D01*
X125250044Y-68328963D01*
X125273185Y-68250840D01*
X125277415Y-68242679D01*
X125281975Y-68228305D01*
X125321852Y-68156952D01*
X125356697Y-68089731D01*
X125366014Y-68077933D01*
X125376229Y-68059656D01*
X125425835Y-68002186D01*
X125469166Y-67947320D01*
X125484969Y-67933680D01*
X125502470Y-67913404D01*
X125558005Y-67870637D01*
X125606538Y-67828744D01*
X125629695Y-67815428D01*
X125655541Y-67795524D01*
X125713296Y-67767355D01*
X125763852Y-67738284D01*
X125794628Y-67727687D01*
X125829188Y-67710831D01*
X125885785Y-67696299D01*
X125935431Y-67679205D01*
X125973421Y-67673798D01*
X126016319Y-67662784D01*
X126068873Y-67660214D01*
X126115090Y-67653636D01*
X126159227Y-67655794D01*
X126209288Y-67653346D01*
X126255525Y-67660504D01*
G37*
G36*
X128955545Y-67657964D02*
G01*
X128996362Y-67659960D01*
X129044952Y-67671805D01*
X129100234Y-67680363D01*
X129138620Y-67694638D01*
X129172666Y-67702938D01*
X129223424Y-67726177D01*
X129281317Y-67747707D01*
X129311103Y-67766320D01*
X129337666Y-67778481D01*
X129387845Y-67814273D01*
X129445160Y-67850088D01*
X129466366Y-67870282D01*
X129485400Y-67883859D01*
X129531904Y-67932693D01*
X129585070Y-67983322D01*
X129598449Y-68002572D01*
X129610547Y-68015276D01*
X129650119Y-68076916D01*
X129695332Y-68141969D01*
X129702261Y-68158134D01*
X129708580Y-68167978D01*
X129737924Y-68241344D01*
X129771442Y-68319546D01*
X129773802Y-68331045D01*
X129775973Y-68336472D01*
X129791992Y-68419660D01*
X129810290Y-68508800D01*
X129810214Y-68530626D01*
X129809768Y-68701278D01*
X129809616Y-68702046D01*
X129809593Y-68708637D01*
X129790857Y-68796782D01*
X129774552Y-68879125D01*
X129772038Y-68885315D01*
X129769424Y-68897615D01*
X129735695Y-68974817D01*
X129706280Y-69047259D01*
X129699456Y-69057767D01*
X129692077Y-69074657D01*
X129646883Y-69138723D01*
X129607447Y-69199450D01*
X129594702Y-69212694D01*
X129580710Y-69232529D01*
X129527806Y-69282209D01*
X129481612Y-69330212D01*
X129461823Y-69344171D01*
X129439873Y-69364784D01*
X129383022Y-69399759D01*
X129333329Y-69434813D01*
X129305941Y-69447179D01*
X129275319Y-69466018D01*
X129218070Y-69486855D01*
X129167940Y-69509490D01*
X129133036Y-69517805D01*
X129093770Y-69532097D01*
X129039253Y-69540147D01*
X128991410Y-69551545D01*
X128949749Y-69553364D01*
X128902643Y-69560320D01*
X128853442Y-69557569D01*
X128810114Y-69559461D01*
X128763097Y-69552518D01*
X128709744Y-69549535D01*
X128667735Y-69538436D01*
X128630593Y-69532951D01*
X128580254Y-69515322D01*
X128522953Y-69500183D01*
X128489255Y-69483455D01*
X128459323Y-69472973D01*
X128408204Y-69443221D01*
X128349901Y-69414279D01*
X128324854Y-69394710D01*
X128302487Y-69381692D01*
X128253541Y-69338994D01*
X128197658Y-69295333D01*
X128180843Y-69275576D01*
X128165735Y-69262396D01*
X128122165Y-69206629D01*
X128072441Y-69148204D01*
X128062761Y-69130597D01*
X128054015Y-69119402D01*
X128019138Y-69051245D01*
X127979366Y-68978901D01*
X127975153Y-68965293D01*
X127971348Y-68957856D01*
X127948385Y-68878818D01*
X127922235Y-68794341D01*
X127921416Y-68785993D01*
X127920719Y-68783592D01*
X127912614Y-68696218D01*
X127903382Y-68602063D01*
X127913162Y-68509009D01*
X127921664Y-68422302D01*
X127922612Y-68419101D01*
X127923577Y-68409921D01*
X127950064Y-68326423D01*
X127973205Y-68248300D01*
X127977435Y-68240139D01*
X127981995Y-68225765D01*
X128021872Y-68154412D01*
X128056717Y-68087191D01*
X128066034Y-68075393D01*
X128076249Y-68057116D01*
X128125855Y-67999646D01*
X128169186Y-67944780D01*
X128184989Y-67931140D01*
X128202490Y-67910864D01*
X128258025Y-67868097D01*
X128306558Y-67826204D01*
X128329715Y-67812888D01*
X128355561Y-67792984D01*
X128413316Y-67764815D01*
X128463872Y-67735744D01*
X128494648Y-67725147D01*
X128529208Y-67708291D01*
X128585805Y-67693759D01*
X128635451Y-67676665D01*
X128673441Y-67671258D01*
X128716339Y-67660244D01*
X128768893Y-67657674D01*
X128815110Y-67651096D01*
X128859247Y-67653254D01*
X128909308Y-67650806D01*
X128955545Y-67657964D01*
G37*
G36*
X111919765Y-67650344D02*
G01*
X111960582Y-67652340D01*
X112009172Y-67664185D01*
X112064454Y-67672743D01*
X112102840Y-67687018D01*
X112136886Y-67695318D01*
X112187644Y-67718557D01*
X112245537Y-67740087D01*
X112275323Y-67758700D01*
X112301886Y-67770861D01*
X112352065Y-67806653D01*
X112409380Y-67842468D01*
X112430586Y-67862662D01*
X112449620Y-67876239D01*
X112496124Y-67925073D01*
X112549290Y-67975702D01*
X112562669Y-67994952D01*
X112574767Y-68007656D01*
X112614339Y-68069296D01*
X112659552Y-68134349D01*
X112666481Y-68150514D01*
X112672800Y-68160358D01*
X112702144Y-68233724D01*
X112735662Y-68311926D01*
X112738022Y-68323425D01*
X112740193Y-68328852D01*
X112756212Y-68412040D01*
X112774510Y-68501180D01*
X112774434Y-68523006D01*
X112773988Y-68693658D01*
X112773836Y-68694426D01*
X112773813Y-68701017D01*
X112755077Y-68789162D01*
X112738772Y-68871505D01*
X112736258Y-68877695D01*
X112733644Y-68889995D01*
X112699915Y-68967197D01*
X112670500Y-69039639D01*
X112663676Y-69050147D01*
X112656297Y-69067037D01*
X112611103Y-69131103D01*
X112571667Y-69191830D01*
X112558922Y-69205074D01*
X112544930Y-69224909D01*
X112492026Y-69274589D01*
X112445832Y-69322592D01*
X112426043Y-69336551D01*
X112404093Y-69357164D01*
X112347242Y-69392139D01*
X112297549Y-69427193D01*
X112270161Y-69439559D01*
X112239539Y-69458398D01*
X112182290Y-69479235D01*
X112132160Y-69501870D01*
X112097256Y-69510185D01*
X112057990Y-69524477D01*
X112003473Y-69532527D01*
X111955630Y-69543925D01*
X111913969Y-69545744D01*
X111866863Y-69552700D01*
X111817662Y-69549949D01*
X111774334Y-69551841D01*
X111727317Y-69544898D01*
X111673964Y-69541915D01*
X111631955Y-69530816D01*
X111594813Y-69525331D01*
X111544474Y-69507702D01*
X111487173Y-69492563D01*
X111453475Y-69475835D01*
X111423543Y-69465353D01*
X111372424Y-69435601D01*
X111314121Y-69406659D01*
X111289074Y-69387090D01*
X111266707Y-69374072D01*
X111217761Y-69331374D01*
X111161878Y-69287713D01*
X111145063Y-69267956D01*
X111129955Y-69254776D01*
X111086385Y-69199009D01*
X111036661Y-69140584D01*
X111026981Y-69122977D01*
X111018235Y-69111782D01*
X110983358Y-69043625D01*
X110943586Y-68971281D01*
X110939373Y-68957673D01*
X110935568Y-68950236D01*
X110912605Y-68871198D01*
X110886455Y-68786721D01*
X110885636Y-68778373D01*
X110884939Y-68775972D01*
X110876834Y-68688598D01*
X110867602Y-68594443D01*
X110877382Y-68501389D01*
X110885884Y-68414682D01*
X110886832Y-68411481D01*
X110887797Y-68402301D01*
X110914284Y-68318803D01*
X110937425Y-68240680D01*
X110941655Y-68232519D01*
X110946215Y-68218145D01*
X110986092Y-68146792D01*
X111020937Y-68079571D01*
X111030254Y-68067773D01*
X111040469Y-68049496D01*
X111090075Y-67992026D01*
X111133406Y-67937160D01*
X111149209Y-67923520D01*
X111166710Y-67903244D01*
X111222245Y-67860477D01*
X111270778Y-67818584D01*
X111293935Y-67805268D01*
X111319781Y-67785364D01*
X111377536Y-67757195D01*
X111428092Y-67728124D01*
X111458868Y-67717527D01*
X111493428Y-67700671D01*
X111550025Y-67686139D01*
X111599671Y-67669045D01*
X111637661Y-67663638D01*
X111680559Y-67652624D01*
X111733113Y-67650054D01*
X111779330Y-67643476D01*
X111823467Y-67645634D01*
X111873528Y-67643186D01*
X111919765Y-67650344D01*
G37*
G36*
X109067345Y-67642724D02*
G01*
X109108162Y-67644720D01*
X109156752Y-67656565D01*
X109212034Y-67665123D01*
X109250420Y-67679398D01*
X109284466Y-67687698D01*
X109335224Y-67710937D01*
X109393117Y-67732467D01*
X109422903Y-67751080D01*
X109449466Y-67763241D01*
X109499645Y-67799033D01*
X109556960Y-67834848D01*
X109578166Y-67855042D01*
X109597200Y-67868619D01*
X109643704Y-67917453D01*
X109696870Y-67968082D01*
X109710249Y-67987332D01*
X109722347Y-68000036D01*
X109761919Y-68061676D01*
X109807132Y-68126729D01*
X109814061Y-68142894D01*
X109820380Y-68152738D01*
X109849724Y-68226104D01*
X109883242Y-68304306D01*
X109885602Y-68315805D01*
X109887773Y-68321232D01*
X109903792Y-68404420D01*
X109922090Y-68493560D01*
X109922015Y-68515085D01*
X109921568Y-68686038D01*
X109921416Y-68686806D01*
X109921393Y-68693397D01*
X109902657Y-68781542D01*
X109886352Y-68863885D01*
X109883838Y-68870075D01*
X109881224Y-68882375D01*
X109847495Y-68959577D01*
X109818080Y-69032019D01*
X109811256Y-69042527D01*
X109803877Y-69059417D01*
X109758683Y-69123483D01*
X109719247Y-69184210D01*
X109706502Y-69197454D01*
X109692510Y-69217289D01*
X109639606Y-69266969D01*
X109593412Y-69314972D01*
X109573623Y-69328931D01*
X109551673Y-69349544D01*
X109494822Y-69384519D01*
X109445129Y-69419573D01*
X109417741Y-69431939D01*
X109387119Y-69450778D01*
X109329870Y-69471615D01*
X109279740Y-69494250D01*
X109244836Y-69502565D01*
X109205570Y-69516857D01*
X109151053Y-69524907D01*
X109103210Y-69536305D01*
X109061549Y-69538124D01*
X109014443Y-69545080D01*
X108965242Y-69542329D01*
X108921914Y-69544221D01*
X108874897Y-69537278D01*
X108821544Y-69534295D01*
X108779535Y-69523196D01*
X108742393Y-69517711D01*
X108692054Y-69500082D01*
X108634753Y-69484943D01*
X108601055Y-69468215D01*
X108571123Y-69457733D01*
X108520004Y-69427981D01*
X108461701Y-69399039D01*
X108436654Y-69379470D01*
X108414287Y-69366452D01*
X108365341Y-69323754D01*
X108309458Y-69280093D01*
X108292643Y-69260336D01*
X108277535Y-69247156D01*
X108233965Y-69191389D01*
X108184241Y-69132964D01*
X108174561Y-69115357D01*
X108165815Y-69104162D01*
X108130938Y-69036005D01*
X108091166Y-68963661D01*
X108086953Y-68950053D01*
X108083148Y-68942616D01*
X108060185Y-68863578D01*
X108034035Y-68779101D01*
X108033216Y-68770753D01*
X108032519Y-68768352D01*
X108024414Y-68680978D01*
X108015182Y-68586823D01*
X108024962Y-68493769D01*
X108033464Y-68407062D01*
X108034412Y-68403861D01*
X108035377Y-68394681D01*
X108061864Y-68311183D01*
X108085005Y-68233060D01*
X108089235Y-68224899D01*
X108093795Y-68210525D01*
X108133672Y-68139172D01*
X108168517Y-68071951D01*
X108177834Y-68060153D01*
X108188049Y-68041876D01*
X108237655Y-67984406D01*
X108280986Y-67929540D01*
X108296789Y-67915900D01*
X108314290Y-67895624D01*
X108369825Y-67852857D01*
X108418358Y-67810964D01*
X108441515Y-67797648D01*
X108467361Y-67777744D01*
X108525116Y-67749575D01*
X108575672Y-67720504D01*
X108606448Y-67709907D01*
X108641008Y-67693051D01*
X108697605Y-67678519D01*
X108747251Y-67661425D01*
X108785241Y-67656018D01*
X108828139Y-67645004D01*
X108880693Y-67642434D01*
X108926910Y-67635856D01*
X108971047Y-67638014D01*
X109021108Y-67635566D01*
X109067345Y-67642724D01*
G37*
G36*
X115159137Y-67749567D02*
G01*
X115200927Y-67747523D01*
X115245217Y-67754380D01*
X115295971Y-67757217D01*
X115336324Y-67768484D01*
X115371782Y-67773973D01*
X115419365Y-67791669D01*
X115474059Y-67806940D01*
X115505783Y-67823808D01*
X115533820Y-67834235D01*
X115581918Y-67864290D01*
X115637314Y-67893745D01*
X115660129Y-67913162D01*
X115680432Y-67925849D01*
X115725802Y-67969054D01*
X115778122Y-68013582D01*
X115792624Y-68032688D01*
X115805633Y-68045076D01*
X115844777Y-68101396D01*
X115889912Y-68160859D01*
X115897463Y-68177200D01*
X115904303Y-68187042D01*
X115933669Y-68255558D01*
X115967468Y-68328706D01*
X115970046Y-68340433D01*
X115972408Y-68345943D01*
X115988590Y-68424777D01*
X116007172Y-68509292D01*
X116006506Y-68700129D01*
X115987342Y-68784479D01*
X115970604Y-68863226D01*
X115968202Y-68868723D01*
X115965542Y-68880433D01*
X115931230Y-68953350D01*
X115901388Y-69021656D01*
X115894479Y-69031450D01*
X115886816Y-69047735D01*
X115841275Y-69106871D01*
X115801731Y-69162928D01*
X115788633Y-69175228D01*
X115774001Y-69194228D01*
X115721388Y-69238376D01*
X115675705Y-69281275D01*
X115655308Y-69293823D01*
X115632360Y-69313079D01*
X115576761Y-69342146D01*
X115528454Y-69371864D01*
X115500345Y-69382095D01*
X115468502Y-69398742D01*
X115413695Y-69413633D01*
X115365992Y-69430995D01*
X115330501Y-69436236D01*
X115290072Y-69447220D01*
X115239300Y-69449703D01*
X115194964Y-69456250D01*
X115153188Y-69453915D01*
X115105394Y-69456252D01*
X115061153Y-69448769D01*
X115022350Y-69446600D01*
X114976141Y-69434391D01*
X114923084Y-69425417D01*
X114887000Y-69410838D01*
X114855196Y-69402435D01*
X114807058Y-69378540D01*
X114751649Y-69356153D01*
X114724472Y-69337545D01*
X114700343Y-69325567D01*
X114653289Y-69288804D01*
X114599087Y-69251691D01*
X114580630Y-69232036D01*
X114564111Y-69219130D01*
X114521561Y-69169134D01*
X114472515Y-69116905D01*
X114461769Y-69098879D01*
X114452057Y-69087467D01*
X114417562Y-69024722D01*
X114377839Y-68958085D01*
X114373104Y-68943852D01*
X114368771Y-68935970D01*
X114345853Y-68861933D01*
X114319475Y-68782639D01*
X114318533Y-68773675D01*
X114317647Y-68770813D01*
X114309508Y-68687809D01*
X114300148Y-68598753D01*
X114310128Y-68509785D01*
X114318848Y-68426819D01*
X114319754Y-68423961D01*
X114320759Y-68415006D01*
X114347691Y-68335894D01*
X114371124Y-68262022D01*
X114375511Y-68254173D01*
X114380345Y-68239972D01*
X114420543Y-68173598D01*
X114455465Y-68111112D01*
X114465253Y-68099772D01*
X114476128Y-68081816D01*
X114525546Y-68029922D01*
X114568434Y-67980236D01*
X114585040Y-67967448D01*
X114603638Y-67947918D01*
X114658113Y-67911174D01*
X114705411Y-67874750D01*
X114729619Y-67862943D01*
X114756926Y-67844524D01*
X114812480Y-67822528D01*
X114860794Y-67798964D01*
X114892664Y-67790781D01*
X114928840Y-67776458D01*
X114981956Y-67767855D01*
X115028249Y-67755969D01*
X115067064Y-67754071D01*
X115111360Y-67746896D01*
X115159137Y-67749567D01*
G37*
G36*
X122779137Y-67749567D02*
G01*
X122820927Y-67747523D01*
X122865217Y-67754380D01*
X122915971Y-67757217D01*
X122956324Y-67768484D01*
X122991782Y-67773973D01*
X123039365Y-67791669D01*
X123094059Y-67806940D01*
X123125783Y-67823808D01*
X123153820Y-67834235D01*
X123201918Y-67864290D01*
X123257314Y-67893745D01*
X123280129Y-67913162D01*
X123300432Y-67925849D01*
X123345802Y-67969054D01*
X123398122Y-68013582D01*
X123412624Y-68032688D01*
X123425633Y-68045076D01*
X123464777Y-68101396D01*
X123509912Y-68160859D01*
X123517463Y-68177200D01*
X123524303Y-68187042D01*
X123553669Y-68255558D01*
X123587468Y-68328706D01*
X123590046Y-68340433D01*
X123592408Y-68345943D01*
X123608590Y-68424777D01*
X123627172Y-68509292D01*
X123626506Y-68700129D01*
X123607342Y-68784479D01*
X123590604Y-68863226D01*
X123588202Y-68868723D01*
X123585542Y-68880433D01*
X123551230Y-68953350D01*
X123521388Y-69021656D01*
X123514479Y-69031450D01*
X123506816Y-69047735D01*
X123461275Y-69106871D01*
X123421731Y-69162928D01*
X123408633Y-69175228D01*
X123394001Y-69194228D01*
X123341388Y-69238376D01*
X123295705Y-69281275D01*
X123275308Y-69293823D01*
X123252360Y-69313079D01*
X123196761Y-69342146D01*
X123148454Y-69371864D01*
X123120345Y-69382095D01*
X123088502Y-69398742D01*
X123033695Y-69413633D01*
X122985992Y-69430995D01*
X122950501Y-69436236D01*
X122910072Y-69447220D01*
X122859300Y-69449703D01*
X122814964Y-69456250D01*
X122773188Y-69453915D01*
X122725394Y-69456252D01*
X122681153Y-69448769D01*
X122642350Y-69446600D01*
X122596141Y-69434391D01*
X122543084Y-69425417D01*
X122507000Y-69410838D01*
X122475196Y-69402435D01*
X122427058Y-69378540D01*
X122371649Y-69356153D01*
X122344472Y-69337545D01*
X122320343Y-69325567D01*
X122273289Y-69288804D01*
X122219087Y-69251691D01*
X122200630Y-69232036D01*
X122184111Y-69219130D01*
X122141561Y-69169134D01*
X122092515Y-69116905D01*
X122081769Y-69098879D01*
X122072057Y-69087467D01*
X122037562Y-69024722D01*
X121997839Y-68958085D01*
X121993104Y-68943852D01*
X121988771Y-68935970D01*
X121965853Y-68861933D01*
X121939475Y-68782639D01*
X121938533Y-68773675D01*
X121937647Y-68770813D01*
X121929508Y-68687809D01*
X121920148Y-68598753D01*
X121930128Y-68509785D01*
X121938848Y-68426819D01*
X121939754Y-68423961D01*
X121940759Y-68415006D01*
X121967691Y-68335894D01*
X121991124Y-68262022D01*
X121995511Y-68254173D01*
X122000345Y-68239972D01*
X122040543Y-68173598D01*
X122075465Y-68111112D01*
X122085253Y-68099772D01*
X122096128Y-68081816D01*
X122145546Y-68029922D01*
X122188434Y-67980236D01*
X122205040Y-67967448D01*
X122223638Y-67947918D01*
X122278113Y-67911174D01*
X122325411Y-67874750D01*
X122349619Y-67862943D01*
X122376926Y-67844524D01*
X122432480Y-67822528D01*
X122480794Y-67798964D01*
X122512664Y-67790781D01*
X122548840Y-67776458D01*
X122601956Y-67767855D01*
X122648249Y-67755969D01*
X122687064Y-67754071D01*
X122731360Y-67746896D01*
X122779137Y-67749567D01*
G37*
G36*
X128965705Y-65128124D02*
G01*
X129006522Y-65130120D01*
X129055112Y-65141965D01*
X129110394Y-65150523D01*
X129148780Y-65164798D01*
X129182826Y-65173098D01*
X129233584Y-65196337D01*
X129291477Y-65217867D01*
X129321263Y-65236480D01*
X129347826Y-65248641D01*
X129398005Y-65284433D01*
X129455320Y-65320248D01*
X129476526Y-65340442D01*
X129495560Y-65354019D01*
X129542064Y-65402853D01*
X129595230Y-65453482D01*
X129608609Y-65472732D01*
X129620707Y-65485436D01*
X129660279Y-65547076D01*
X129705492Y-65612129D01*
X129712421Y-65628294D01*
X129718740Y-65638138D01*
X129748084Y-65711504D01*
X129781602Y-65789706D01*
X129783962Y-65801205D01*
X129786133Y-65806632D01*
X129802152Y-65889820D01*
X129820450Y-65978960D01*
X129820374Y-66000786D01*
X129819928Y-66171438D01*
X129819776Y-66172206D01*
X129819753Y-66178797D01*
X129801017Y-66266942D01*
X129784712Y-66349285D01*
X129782198Y-66355475D01*
X129779584Y-66367775D01*
X129745855Y-66444977D01*
X129716440Y-66517419D01*
X129709616Y-66527927D01*
X129702237Y-66544817D01*
X129657043Y-66608883D01*
X129617607Y-66669610D01*
X129604862Y-66682854D01*
X129590870Y-66702689D01*
X129537966Y-66752369D01*
X129491772Y-66800372D01*
X129471983Y-66814331D01*
X129450033Y-66834944D01*
X129393182Y-66869919D01*
X129343489Y-66904973D01*
X129316101Y-66917339D01*
X129285479Y-66936178D01*
X129228230Y-66957015D01*
X129178100Y-66979650D01*
X129143196Y-66987965D01*
X129103930Y-67002257D01*
X129049413Y-67010307D01*
X129001570Y-67021705D01*
X128959909Y-67023524D01*
X128912803Y-67030480D01*
X128863602Y-67027729D01*
X128820274Y-67029621D01*
X128773257Y-67022678D01*
X128719904Y-67019695D01*
X128677895Y-67008596D01*
X128640753Y-67003111D01*
X128590414Y-66985482D01*
X128533113Y-66970343D01*
X128499415Y-66953615D01*
X128469483Y-66943133D01*
X128418364Y-66913381D01*
X128360061Y-66884439D01*
X128335014Y-66864870D01*
X128312647Y-66851852D01*
X128263701Y-66809154D01*
X128207818Y-66765493D01*
X128191003Y-66745736D01*
X128175895Y-66732556D01*
X128132325Y-66676789D01*
X128082601Y-66618364D01*
X128072921Y-66600757D01*
X128064175Y-66589562D01*
X128029298Y-66521405D01*
X127989526Y-66449061D01*
X127985313Y-66435453D01*
X127981508Y-66428016D01*
X127958545Y-66348978D01*
X127932395Y-66264501D01*
X127931576Y-66256153D01*
X127930879Y-66253752D01*
X127922772Y-66166358D01*
X127913542Y-66072223D01*
X127923322Y-65979169D01*
X127931824Y-65892462D01*
X127932772Y-65889261D01*
X127933737Y-65880081D01*
X127960224Y-65796583D01*
X127983365Y-65718460D01*
X127987595Y-65710299D01*
X127992155Y-65695925D01*
X128032032Y-65624572D01*
X128066877Y-65557351D01*
X128076194Y-65545553D01*
X128086409Y-65527276D01*
X128136015Y-65469806D01*
X128179346Y-65414940D01*
X128195149Y-65401300D01*
X128212650Y-65381024D01*
X128268185Y-65338257D01*
X128316718Y-65296364D01*
X128339875Y-65283048D01*
X128365721Y-65263144D01*
X128423476Y-65234975D01*
X128474032Y-65205904D01*
X128504808Y-65195307D01*
X128539368Y-65178451D01*
X128595965Y-65163919D01*
X128645611Y-65146825D01*
X128683601Y-65141418D01*
X128726499Y-65130404D01*
X128779053Y-65127834D01*
X128825270Y-65121256D01*
X128869407Y-65123414D01*
X128919468Y-65120966D01*
X128965705Y-65128124D01*
G37*
G36*
X126301245Y-65123044D02*
G01*
X126342062Y-65125040D01*
X126390652Y-65136885D01*
X126445934Y-65145443D01*
X126484320Y-65159718D01*
X126518366Y-65168018D01*
X126569124Y-65191257D01*
X126627017Y-65212787D01*
X126656803Y-65231400D01*
X126683366Y-65243561D01*
X126733545Y-65279353D01*
X126790860Y-65315168D01*
X126812066Y-65335362D01*
X126831100Y-65348939D01*
X126877604Y-65397773D01*
X126930770Y-65448402D01*
X126944149Y-65467652D01*
X126956247Y-65480356D01*
X126995819Y-65541996D01*
X127041032Y-65607049D01*
X127047961Y-65623214D01*
X127054280Y-65633058D01*
X127083624Y-65706424D01*
X127117142Y-65784626D01*
X127119502Y-65796125D01*
X127121673Y-65801552D01*
X127137692Y-65884740D01*
X127155990Y-65973880D01*
X127155914Y-65995706D01*
X127155468Y-66166358D01*
X127155316Y-66167126D01*
X127155293Y-66173717D01*
X127136557Y-66261862D01*
X127120252Y-66344205D01*
X127117738Y-66350395D01*
X127115124Y-66362695D01*
X127081395Y-66439897D01*
X127051980Y-66512339D01*
X127045156Y-66522847D01*
X127037777Y-66539737D01*
X126992583Y-66603803D01*
X126953147Y-66664530D01*
X126940402Y-66677774D01*
X126926410Y-66697609D01*
X126873506Y-66747289D01*
X126827312Y-66795292D01*
X126807523Y-66809251D01*
X126785573Y-66829864D01*
X126728722Y-66864839D01*
X126679029Y-66899893D01*
X126651641Y-66912259D01*
X126621019Y-66931098D01*
X126563770Y-66951935D01*
X126513640Y-66974570D01*
X126478736Y-66982885D01*
X126439470Y-66997177D01*
X126384953Y-67005227D01*
X126337110Y-67016625D01*
X126295449Y-67018444D01*
X126248343Y-67025400D01*
X126199142Y-67022649D01*
X126155814Y-67024541D01*
X126108797Y-67017598D01*
X126055444Y-67014615D01*
X126013435Y-67003516D01*
X125976293Y-66998031D01*
X125925954Y-66980402D01*
X125868653Y-66965263D01*
X125834955Y-66948535D01*
X125805023Y-66938053D01*
X125753904Y-66908301D01*
X125695601Y-66879359D01*
X125670554Y-66859790D01*
X125648187Y-66846772D01*
X125599241Y-66804074D01*
X125543358Y-66760413D01*
X125526543Y-66740656D01*
X125511435Y-66727476D01*
X125467865Y-66671709D01*
X125418141Y-66613284D01*
X125408461Y-66595677D01*
X125399715Y-66584482D01*
X125364838Y-66516325D01*
X125325066Y-66443981D01*
X125320853Y-66430373D01*
X125317048Y-66422936D01*
X125294085Y-66343898D01*
X125267935Y-66259421D01*
X125267116Y-66251073D01*
X125266419Y-66248672D01*
X125258312Y-66161278D01*
X125249082Y-66067143D01*
X125258862Y-65974089D01*
X125267364Y-65887382D01*
X125268312Y-65884181D01*
X125269277Y-65875001D01*
X125295764Y-65791503D01*
X125318905Y-65713380D01*
X125323135Y-65705219D01*
X125327695Y-65690845D01*
X125367572Y-65619492D01*
X125402417Y-65552271D01*
X125411734Y-65540473D01*
X125421949Y-65522196D01*
X125471555Y-65464726D01*
X125514886Y-65409860D01*
X125530689Y-65396220D01*
X125548190Y-65375944D01*
X125603725Y-65333177D01*
X125652258Y-65291284D01*
X125675415Y-65277968D01*
X125701261Y-65258064D01*
X125759016Y-65229895D01*
X125809572Y-65200824D01*
X125840348Y-65190227D01*
X125874908Y-65173371D01*
X125931505Y-65158839D01*
X125981151Y-65141745D01*
X126019141Y-65136338D01*
X126062039Y-65125324D01*
X126114593Y-65122754D01*
X126160810Y-65116176D01*
X126204947Y-65118334D01*
X126255008Y-65115886D01*
X126301245Y-65123044D01*
G37*
G36*
X109057185Y-65117964D02*
G01*
X109098002Y-65119960D01*
X109146592Y-65131805D01*
X109201874Y-65140363D01*
X109240260Y-65154638D01*
X109274306Y-65162938D01*
X109325064Y-65186177D01*
X109382957Y-65207707D01*
X109412743Y-65226320D01*
X109439306Y-65238481D01*
X109489485Y-65274273D01*
X109546800Y-65310088D01*
X109568006Y-65330282D01*
X109587040Y-65343859D01*
X109633544Y-65392693D01*
X109686710Y-65443322D01*
X109700089Y-65462572D01*
X109712187Y-65475276D01*
X109751759Y-65536916D01*
X109796972Y-65601969D01*
X109803901Y-65618134D01*
X109810220Y-65627978D01*
X109839564Y-65701344D01*
X109873082Y-65779546D01*
X109875442Y-65791045D01*
X109877613Y-65796472D01*
X109893632Y-65879660D01*
X109911930Y-65968800D01*
X109911854Y-65990626D01*
X109911408Y-66161278D01*
X109911256Y-66162046D01*
X109911233Y-66168637D01*
X109892497Y-66256782D01*
X109876192Y-66339125D01*
X109873678Y-66345315D01*
X109871064Y-66357615D01*
X109837335Y-66434817D01*
X109807920Y-66507259D01*
X109801096Y-66517767D01*
X109793717Y-66534657D01*
X109748523Y-66598723D01*
X109709087Y-66659450D01*
X109696342Y-66672694D01*
X109682350Y-66692529D01*
X109629446Y-66742209D01*
X109583252Y-66790212D01*
X109563463Y-66804171D01*
X109541513Y-66824784D01*
X109484662Y-66859759D01*
X109434969Y-66894813D01*
X109407581Y-66907179D01*
X109376959Y-66926018D01*
X109319710Y-66946855D01*
X109269580Y-66969490D01*
X109234676Y-66977805D01*
X109195410Y-66992097D01*
X109140893Y-67000147D01*
X109093050Y-67011545D01*
X109051389Y-67013364D01*
X109004283Y-67020320D01*
X108955082Y-67017569D01*
X108911754Y-67019461D01*
X108864737Y-67012518D01*
X108811384Y-67009535D01*
X108769375Y-66998436D01*
X108732233Y-66992951D01*
X108681894Y-66975322D01*
X108624593Y-66960183D01*
X108590895Y-66943455D01*
X108560963Y-66932973D01*
X108509844Y-66903221D01*
X108451541Y-66874279D01*
X108426494Y-66854710D01*
X108404127Y-66841692D01*
X108355181Y-66798994D01*
X108299298Y-66755333D01*
X108282483Y-66735576D01*
X108267375Y-66722396D01*
X108223805Y-66666629D01*
X108174081Y-66608204D01*
X108164401Y-66590597D01*
X108155655Y-66579402D01*
X108120778Y-66511245D01*
X108081006Y-66438901D01*
X108076793Y-66425293D01*
X108072988Y-66417856D01*
X108050025Y-66338818D01*
X108023875Y-66254341D01*
X108023056Y-66245993D01*
X108022359Y-66243592D01*
X108014254Y-66156218D01*
X108005022Y-66062063D01*
X108014802Y-65969009D01*
X108023304Y-65882302D01*
X108024252Y-65879101D01*
X108025217Y-65869921D01*
X108051704Y-65786423D01*
X108074845Y-65708300D01*
X108079075Y-65700139D01*
X108083635Y-65685765D01*
X108123512Y-65614412D01*
X108158357Y-65547191D01*
X108167674Y-65535393D01*
X108177889Y-65517116D01*
X108227495Y-65459646D01*
X108270826Y-65404780D01*
X108286629Y-65391140D01*
X108304130Y-65370864D01*
X108359665Y-65328097D01*
X108408198Y-65286204D01*
X108431355Y-65272888D01*
X108457201Y-65252984D01*
X108514956Y-65224815D01*
X108565512Y-65195744D01*
X108596288Y-65185147D01*
X108630848Y-65168291D01*
X108687445Y-65153759D01*
X108737091Y-65136665D01*
X108775081Y-65131258D01*
X108817979Y-65120244D01*
X108870533Y-65117674D01*
X108916750Y-65111096D01*
X108960887Y-65113254D01*
X109010948Y-65110806D01*
X109057185Y-65117964D01*
G37*
G36*
X111924845Y-65117964D02*
G01*
X111965662Y-65119960D01*
X112014252Y-65131805D01*
X112069534Y-65140363D01*
X112107920Y-65154638D01*
X112141966Y-65162938D01*
X112192724Y-65186177D01*
X112250617Y-65207707D01*
X112280403Y-65226320D01*
X112306966Y-65238481D01*
X112357145Y-65274273D01*
X112414460Y-65310088D01*
X112435666Y-65330282D01*
X112454700Y-65343859D01*
X112501204Y-65392693D01*
X112554370Y-65443322D01*
X112567749Y-65462572D01*
X112579847Y-65475276D01*
X112619419Y-65536916D01*
X112664632Y-65601969D01*
X112671561Y-65618134D01*
X112677880Y-65627978D01*
X112707224Y-65701344D01*
X112740742Y-65779546D01*
X112743102Y-65791045D01*
X112745273Y-65796472D01*
X112761292Y-65879660D01*
X112779590Y-65968800D01*
X112779514Y-65990626D01*
X112779068Y-66161278D01*
X112778916Y-66162046D01*
X112778893Y-66168637D01*
X112760157Y-66256782D01*
X112743852Y-66339125D01*
X112741338Y-66345315D01*
X112738724Y-66357615D01*
X112704995Y-66434817D01*
X112675580Y-66507259D01*
X112668756Y-66517767D01*
X112661377Y-66534657D01*
X112616183Y-66598723D01*
X112576747Y-66659450D01*
X112564002Y-66672694D01*
X112550010Y-66692529D01*
X112497106Y-66742209D01*
X112450912Y-66790212D01*
X112431123Y-66804171D01*
X112409173Y-66824784D01*
X112352322Y-66859759D01*
X112302629Y-66894813D01*
X112275241Y-66907179D01*
X112244619Y-66926018D01*
X112187370Y-66946855D01*
X112137240Y-66969490D01*
X112102336Y-66977805D01*
X112063070Y-66992097D01*
X112008553Y-67000147D01*
X111960710Y-67011545D01*
X111919049Y-67013364D01*
X111871943Y-67020320D01*
X111822742Y-67017569D01*
X111779414Y-67019461D01*
X111732397Y-67012518D01*
X111679044Y-67009535D01*
X111637035Y-66998436D01*
X111599893Y-66992951D01*
X111549554Y-66975322D01*
X111492253Y-66960183D01*
X111458555Y-66943455D01*
X111428623Y-66932973D01*
X111377504Y-66903221D01*
X111319201Y-66874279D01*
X111294154Y-66854710D01*
X111271787Y-66841692D01*
X111222841Y-66798994D01*
X111166958Y-66755333D01*
X111150143Y-66735576D01*
X111135035Y-66722396D01*
X111091465Y-66666629D01*
X111041741Y-66608204D01*
X111032061Y-66590597D01*
X111023315Y-66579402D01*
X110988438Y-66511245D01*
X110948666Y-66438901D01*
X110944453Y-66425293D01*
X110940648Y-66417856D01*
X110917685Y-66338818D01*
X110891535Y-66254341D01*
X110890716Y-66245993D01*
X110890019Y-66243592D01*
X110881914Y-66156218D01*
X110872682Y-66062063D01*
X110882462Y-65969009D01*
X110890964Y-65882302D01*
X110891912Y-65879101D01*
X110892877Y-65869921D01*
X110919364Y-65786423D01*
X110942505Y-65708300D01*
X110946735Y-65700139D01*
X110951295Y-65685765D01*
X110991172Y-65614412D01*
X111026017Y-65547191D01*
X111035334Y-65535393D01*
X111045549Y-65517116D01*
X111095155Y-65459646D01*
X111138486Y-65404780D01*
X111154289Y-65391140D01*
X111171790Y-65370864D01*
X111227325Y-65328097D01*
X111275858Y-65286204D01*
X111299015Y-65272888D01*
X111324861Y-65252984D01*
X111382616Y-65224815D01*
X111433172Y-65195744D01*
X111463948Y-65185147D01*
X111498508Y-65168291D01*
X111555105Y-65153759D01*
X111604751Y-65136665D01*
X111642741Y-65131258D01*
X111685639Y-65120244D01*
X111738193Y-65117674D01*
X111784410Y-65111096D01*
X111828547Y-65113254D01*
X111878608Y-65110806D01*
X111924845Y-65117964D01*
G37*
G36*
X122779137Y-65209567D02*
G01*
X122820927Y-65207523D01*
X122865217Y-65214380D01*
X122915971Y-65217217D01*
X122956324Y-65228484D01*
X122991782Y-65233973D01*
X123039365Y-65251669D01*
X123094059Y-65266940D01*
X123125783Y-65283808D01*
X123153820Y-65294235D01*
X123201918Y-65324290D01*
X123257314Y-65353745D01*
X123280129Y-65373162D01*
X123300432Y-65385849D01*
X123345802Y-65429054D01*
X123398122Y-65473582D01*
X123412624Y-65492688D01*
X123425633Y-65505076D01*
X123464777Y-65561396D01*
X123509912Y-65620859D01*
X123517463Y-65637200D01*
X123524303Y-65647042D01*
X123553669Y-65715558D01*
X123587468Y-65788706D01*
X123590046Y-65800433D01*
X123592408Y-65805943D01*
X123608590Y-65884777D01*
X123627172Y-65969292D01*
X123626506Y-66160129D01*
X123607342Y-66244479D01*
X123590604Y-66323226D01*
X123588202Y-66328723D01*
X123585542Y-66340433D01*
X123551230Y-66413350D01*
X123521388Y-66481656D01*
X123514479Y-66491450D01*
X123506816Y-66507735D01*
X123461275Y-66566871D01*
X123421731Y-66622928D01*
X123408633Y-66635228D01*
X123394001Y-66654228D01*
X123341388Y-66698376D01*
X123295705Y-66741275D01*
X123275308Y-66753823D01*
X123252360Y-66773079D01*
X123196761Y-66802146D01*
X123148454Y-66831864D01*
X123120345Y-66842095D01*
X123088502Y-66858742D01*
X123033695Y-66873633D01*
X122985992Y-66890995D01*
X122950501Y-66896236D01*
X122910072Y-66907220D01*
X122859300Y-66909703D01*
X122814964Y-66916250D01*
X122773188Y-66913915D01*
X122725394Y-66916252D01*
X122681153Y-66908769D01*
X122642350Y-66906600D01*
X122596141Y-66894391D01*
X122543084Y-66885417D01*
X122507000Y-66870838D01*
X122475196Y-66862435D01*
X122427058Y-66838540D01*
X122371649Y-66816153D01*
X122344472Y-66797545D01*
X122320343Y-66785567D01*
X122273289Y-66748804D01*
X122219087Y-66711691D01*
X122200630Y-66692036D01*
X122184111Y-66679130D01*
X122141561Y-66629134D01*
X122092515Y-66576905D01*
X122081769Y-66558879D01*
X122072057Y-66547467D01*
X122037562Y-66484722D01*
X121997839Y-66418085D01*
X121993104Y-66403852D01*
X121988771Y-66395970D01*
X121965853Y-66321933D01*
X121939475Y-66242639D01*
X121938533Y-66233675D01*
X121937647Y-66230813D01*
X121929508Y-66147809D01*
X121920148Y-66058753D01*
X121930128Y-65969785D01*
X121938848Y-65886819D01*
X121939754Y-65883961D01*
X121940759Y-65875006D01*
X121967691Y-65795894D01*
X121991124Y-65722022D01*
X121995511Y-65714173D01*
X122000345Y-65699972D01*
X122040543Y-65633598D01*
X122075465Y-65571112D01*
X122085253Y-65559772D01*
X122096128Y-65541816D01*
X122145546Y-65489922D01*
X122188434Y-65440236D01*
X122205040Y-65427448D01*
X122223638Y-65407918D01*
X122278113Y-65371174D01*
X122325411Y-65334750D01*
X122349619Y-65322943D01*
X122376926Y-65304524D01*
X122432480Y-65282528D01*
X122480794Y-65258964D01*
X122512664Y-65250781D01*
X122548840Y-65236458D01*
X122601956Y-65227855D01*
X122648249Y-65215969D01*
X122687064Y-65214071D01*
X122731360Y-65206896D01*
X122779137Y-65209567D01*
G37*
G36*
X115159137Y-65209567D02*
G01*
X115200927Y-65207523D01*
X115245217Y-65214380D01*
X115295971Y-65217217D01*
X115336324Y-65228484D01*
X115371782Y-65233973D01*
X115419365Y-65251669D01*
X115474059Y-65266940D01*
X115505783Y-65283808D01*
X115533820Y-65294235D01*
X115581918Y-65324290D01*
X115637314Y-65353745D01*
X115660129Y-65373162D01*
X115680432Y-65385849D01*
X115725802Y-65429054D01*
X115778122Y-65473582D01*
X115792624Y-65492688D01*
X115805633Y-65505076D01*
X115844777Y-65561396D01*
X115889912Y-65620859D01*
X115897463Y-65637200D01*
X115904303Y-65647042D01*
X115933669Y-65715558D01*
X115967468Y-65788706D01*
X115970046Y-65800433D01*
X115972408Y-65805943D01*
X115988590Y-65884777D01*
X116007172Y-65969292D01*
X116006506Y-66160129D01*
X115987342Y-66244479D01*
X115970604Y-66323226D01*
X115968202Y-66328723D01*
X115965542Y-66340433D01*
X115931230Y-66413350D01*
X115901388Y-66481656D01*
X115894479Y-66491450D01*
X115886816Y-66507735D01*
X115841275Y-66566871D01*
X115801731Y-66622928D01*
X115788633Y-66635228D01*
X115774001Y-66654228D01*
X115721388Y-66698376D01*
X115675705Y-66741275D01*
X115655308Y-66753823D01*
X115632360Y-66773079D01*
X115576761Y-66802146D01*
X115528454Y-66831864D01*
X115500345Y-66842095D01*
X115468502Y-66858742D01*
X115413695Y-66873633D01*
X115365992Y-66890995D01*
X115330501Y-66896236D01*
X115290072Y-66907220D01*
X115239300Y-66909703D01*
X115194964Y-66916250D01*
X115153188Y-66913915D01*
X115105394Y-66916252D01*
X115061153Y-66908769D01*
X115022350Y-66906600D01*
X114976141Y-66894391D01*
X114923084Y-66885417D01*
X114887000Y-66870838D01*
X114855196Y-66862435D01*
X114807058Y-66838540D01*
X114751649Y-66816153D01*
X114724472Y-66797545D01*
X114700343Y-66785567D01*
X114653289Y-66748804D01*
X114599087Y-66711691D01*
X114580630Y-66692036D01*
X114564111Y-66679130D01*
X114521561Y-66629134D01*
X114472515Y-66576905D01*
X114461769Y-66558879D01*
X114452057Y-66547467D01*
X114417562Y-66484722D01*
X114377839Y-66418085D01*
X114373104Y-66403852D01*
X114368771Y-66395970D01*
X114345853Y-66321933D01*
X114319475Y-66242639D01*
X114318533Y-66233675D01*
X114317647Y-66230813D01*
X114309508Y-66147809D01*
X114300148Y-66058753D01*
X114310128Y-65969785D01*
X114318848Y-65886819D01*
X114319754Y-65883961D01*
X114320759Y-65875006D01*
X114347691Y-65795894D01*
X114371124Y-65722022D01*
X114375511Y-65714173D01*
X114380345Y-65699972D01*
X114420543Y-65633598D01*
X114455465Y-65571112D01*
X114465253Y-65559772D01*
X114476128Y-65541816D01*
X114525546Y-65489922D01*
X114568434Y-65440236D01*
X114585040Y-65427448D01*
X114603638Y-65407918D01*
X114658113Y-65371174D01*
X114705411Y-65334750D01*
X114729619Y-65322943D01*
X114756926Y-65304524D01*
X114812480Y-65282528D01*
X114860794Y-65258964D01*
X114892664Y-65250781D01*
X114928840Y-65236458D01*
X114981956Y-65227855D01*
X115028249Y-65215969D01*
X115067064Y-65214071D01*
X115111360Y-65206896D01*
X115159137Y-65209567D01*
G37*
G36*
X128953005Y-62588124D02*
G01*
X128993822Y-62590120D01*
X129042412Y-62601965D01*
X129097694Y-62610523D01*
X129136080Y-62624798D01*
X129170126Y-62633098D01*
X129220884Y-62656337D01*
X129278777Y-62677867D01*
X129308563Y-62696480D01*
X129335126Y-62708641D01*
X129385305Y-62744433D01*
X129442620Y-62780248D01*
X129463826Y-62800442D01*
X129482860Y-62814019D01*
X129529364Y-62862853D01*
X129582530Y-62913482D01*
X129595909Y-62932732D01*
X129608007Y-62945436D01*
X129647579Y-63007076D01*
X129692792Y-63072129D01*
X129699721Y-63088294D01*
X129706040Y-63098138D01*
X129735384Y-63171504D01*
X129768902Y-63249706D01*
X129771262Y-63261205D01*
X129773433Y-63266632D01*
X129789452Y-63349820D01*
X129807750Y-63438960D01*
X129807674Y-63460786D01*
X129807228Y-63631438D01*
X129807076Y-63632206D01*
X129807053Y-63638797D01*
X129788317Y-63726942D01*
X129772012Y-63809285D01*
X129769498Y-63815475D01*
X129766884Y-63827775D01*
X129733155Y-63904977D01*
X129703740Y-63977419D01*
X129696916Y-63987927D01*
X129689537Y-64004817D01*
X129644343Y-64068883D01*
X129604907Y-64129610D01*
X129592162Y-64142854D01*
X129578170Y-64162689D01*
X129525266Y-64212369D01*
X129479072Y-64260372D01*
X129459283Y-64274331D01*
X129437333Y-64294944D01*
X129380482Y-64329919D01*
X129330789Y-64364973D01*
X129303401Y-64377339D01*
X129272779Y-64396178D01*
X129215530Y-64417015D01*
X129165400Y-64439650D01*
X129130496Y-64447965D01*
X129091230Y-64462257D01*
X129036713Y-64470307D01*
X128988870Y-64481705D01*
X128947209Y-64483524D01*
X128900103Y-64490480D01*
X128850902Y-64487729D01*
X128807574Y-64489621D01*
X128760557Y-64482678D01*
X128707204Y-64479695D01*
X128665195Y-64468596D01*
X128628053Y-64463111D01*
X128577714Y-64445482D01*
X128520413Y-64430343D01*
X128486715Y-64413615D01*
X128456783Y-64403133D01*
X128405664Y-64373381D01*
X128347361Y-64344439D01*
X128322314Y-64324870D01*
X128299947Y-64311852D01*
X128251001Y-64269154D01*
X128195118Y-64225493D01*
X128178303Y-64205736D01*
X128163195Y-64192556D01*
X128119625Y-64136789D01*
X128069901Y-64078364D01*
X128060221Y-64060757D01*
X128051475Y-64049562D01*
X128016598Y-63981405D01*
X127976826Y-63909061D01*
X127972613Y-63895453D01*
X127968808Y-63888016D01*
X127945845Y-63808978D01*
X127919695Y-63724501D01*
X127918876Y-63716153D01*
X127918179Y-63713752D01*
X127910074Y-63626378D01*
X127900842Y-63532223D01*
X127910622Y-63439169D01*
X127919124Y-63352462D01*
X127920072Y-63349261D01*
X127921037Y-63340081D01*
X127947524Y-63256583D01*
X127970665Y-63178460D01*
X127974895Y-63170299D01*
X127979455Y-63155925D01*
X128019332Y-63084572D01*
X128054177Y-63017351D01*
X128063494Y-63005553D01*
X128073709Y-62987276D01*
X128123315Y-62929806D01*
X128166646Y-62874940D01*
X128182449Y-62861300D01*
X128199950Y-62841024D01*
X128255485Y-62798257D01*
X128304018Y-62756364D01*
X128327175Y-62743048D01*
X128353021Y-62723144D01*
X128410776Y-62694975D01*
X128461332Y-62665904D01*
X128492108Y-62655307D01*
X128526668Y-62638451D01*
X128583265Y-62623919D01*
X128632911Y-62606825D01*
X128670901Y-62601418D01*
X128713799Y-62590404D01*
X128766353Y-62587834D01*
X128812570Y-62581256D01*
X128856707Y-62583414D01*
X128906768Y-62580966D01*
X128953005Y-62588124D01*
G37*
G36*
X126280925Y-62585584D02*
G01*
X126321742Y-62587580D01*
X126370332Y-62599425D01*
X126425614Y-62607983D01*
X126464000Y-62622258D01*
X126498046Y-62630558D01*
X126548804Y-62653797D01*
X126606697Y-62675327D01*
X126636483Y-62693940D01*
X126663046Y-62706101D01*
X126713225Y-62741893D01*
X126770540Y-62777708D01*
X126791746Y-62797902D01*
X126810780Y-62811479D01*
X126857284Y-62860313D01*
X126910450Y-62910942D01*
X126923829Y-62930192D01*
X126935927Y-62942896D01*
X126975499Y-63004536D01*
X127020712Y-63069589D01*
X127027641Y-63085754D01*
X127033960Y-63095598D01*
X127063304Y-63168964D01*
X127096822Y-63247166D01*
X127099182Y-63258665D01*
X127101353Y-63264092D01*
X127117372Y-63347280D01*
X127135670Y-63436420D01*
X127135594Y-63458246D01*
X127135148Y-63628898D01*
X127134996Y-63629666D01*
X127134973Y-63636257D01*
X127116237Y-63724402D01*
X127099932Y-63806745D01*
X127097418Y-63812935D01*
X127094804Y-63825235D01*
X127061075Y-63902437D01*
X127031660Y-63974879D01*
X127024836Y-63985387D01*
X127017457Y-64002277D01*
X126972263Y-64066343D01*
X126932827Y-64127070D01*
X126920082Y-64140314D01*
X126906090Y-64160149D01*
X126853186Y-64209829D01*
X126806992Y-64257832D01*
X126787203Y-64271791D01*
X126765253Y-64292404D01*
X126708402Y-64327379D01*
X126658709Y-64362433D01*
X126631321Y-64374799D01*
X126600699Y-64393638D01*
X126543450Y-64414475D01*
X126493320Y-64437110D01*
X126458416Y-64445425D01*
X126419150Y-64459717D01*
X126364633Y-64467767D01*
X126316790Y-64479165D01*
X126275129Y-64480984D01*
X126228023Y-64487940D01*
X126178822Y-64485189D01*
X126135494Y-64487081D01*
X126088477Y-64480138D01*
X126035124Y-64477155D01*
X125993115Y-64466056D01*
X125955973Y-64460571D01*
X125905634Y-64442942D01*
X125848333Y-64427803D01*
X125814635Y-64411075D01*
X125784703Y-64400593D01*
X125733584Y-64370841D01*
X125675281Y-64341899D01*
X125650234Y-64322330D01*
X125627867Y-64309312D01*
X125578921Y-64266614D01*
X125523038Y-64222953D01*
X125506223Y-64203196D01*
X125491115Y-64190016D01*
X125447545Y-64134249D01*
X125397821Y-64075824D01*
X125388141Y-64058217D01*
X125379395Y-64047022D01*
X125344518Y-63978865D01*
X125304746Y-63906521D01*
X125300533Y-63892913D01*
X125296728Y-63885476D01*
X125273765Y-63806438D01*
X125247615Y-63721961D01*
X125246796Y-63713613D01*
X125246099Y-63711212D01*
X125237994Y-63623838D01*
X125228762Y-63529683D01*
X125238542Y-63436629D01*
X125247044Y-63349922D01*
X125247992Y-63346721D01*
X125248957Y-63337541D01*
X125275444Y-63254043D01*
X125298585Y-63175920D01*
X125302815Y-63167759D01*
X125307375Y-63153385D01*
X125347252Y-63082032D01*
X125382097Y-63014811D01*
X125391414Y-63003013D01*
X125401629Y-62984736D01*
X125451235Y-62927266D01*
X125494566Y-62872400D01*
X125510369Y-62858760D01*
X125527870Y-62838484D01*
X125583405Y-62795717D01*
X125631938Y-62753824D01*
X125655095Y-62740508D01*
X125680941Y-62720604D01*
X125738696Y-62692435D01*
X125789252Y-62663364D01*
X125820028Y-62652767D01*
X125854588Y-62635911D01*
X125911185Y-62621379D01*
X125960831Y-62604285D01*
X125998821Y-62598878D01*
X126041719Y-62587864D01*
X126094273Y-62585294D01*
X126140490Y-62578716D01*
X126184627Y-62580874D01*
X126234688Y-62578426D01*
X126280925Y-62585584D01*
G37*
G36*
X111924845Y-62575424D02*
G01*
X111965662Y-62577420D01*
X112014252Y-62589265D01*
X112069534Y-62597823D01*
X112107920Y-62612098D01*
X112141966Y-62620398D01*
X112192724Y-62643637D01*
X112250617Y-62665167D01*
X112280403Y-62683780D01*
X112306966Y-62695941D01*
X112357145Y-62731733D01*
X112414460Y-62767548D01*
X112435666Y-62787742D01*
X112454700Y-62801319D01*
X112501204Y-62850153D01*
X112554370Y-62900782D01*
X112567749Y-62920032D01*
X112579847Y-62932736D01*
X112619419Y-62994376D01*
X112664632Y-63059429D01*
X112671561Y-63075594D01*
X112677880Y-63085438D01*
X112707224Y-63158804D01*
X112740742Y-63237006D01*
X112743102Y-63248505D01*
X112745273Y-63253932D01*
X112761292Y-63337120D01*
X112779590Y-63426260D01*
X112779514Y-63448086D01*
X112779068Y-63618738D01*
X112778916Y-63619506D01*
X112778893Y-63626097D01*
X112760157Y-63714242D01*
X112743852Y-63796585D01*
X112741338Y-63802775D01*
X112738724Y-63815075D01*
X112704995Y-63892277D01*
X112675580Y-63964719D01*
X112668756Y-63975227D01*
X112661377Y-63992117D01*
X112616183Y-64056183D01*
X112576747Y-64116910D01*
X112564002Y-64130154D01*
X112550010Y-64149989D01*
X112497106Y-64199669D01*
X112450912Y-64247672D01*
X112431123Y-64261631D01*
X112409173Y-64282244D01*
X112352322Y-64317219D01*
X112302629Y-64352273D01*
X112275241Y-64364639D01*
X112244619Y-64383478D01*
X112187370Y-64404315D01*
X112137240Y-64426950D01*
X112102336Y-64435265D01*
X112063070Y-64449557D01*
X112008553Y-64457607D01*
X111960710Y-64469005D01*
X111919049Y-64470824D01*
X111871943Y-64477780D01*
X111822742Y-64475029D01*
X111779414Y-64476921D01*
X111732397Y-64469978D01*
X111679044Y-64466995D01*
X111637035Y-64455896D01*
X111599893Y-64450411D01*
X111549554Y-64432782D01*
X111492253Y-64417643D01*
X111458555Y-64400915D01*
X111428623Y-64390433D01*
X111377504Y-64360681D01*
X111319201Y-64331739D01*
X111294154Y-64312170D01*
X111271787Y-64299152D01*
X111222841Y-64256454D01*
X111166958Y-64212793D01*
X111150143Y-64193036D01*
X111135035Y-64179856D01*
X111091465Y-64124089D01*
X111041741Y-64065664D01*
X111032061Y-64048057D01*
X111023315Y-64036862D01*
X110988438Y-63968705D01*
X110948666Y-63896361D01*
X110944453Y-63882753D01*
X110940648Y-63875316D01*
X110917685Y-63796278D01*
X110891535Y-63711801D01*
X110890716Y-63703453D01*
X110890019Y-63701052D01*
X110881914Y-63613678D01*
X110872682Y-63519523D01*
X110882462Y-63426469D01*
X110890964Y-63339762D01*
X110891912Y-63336561D01*
X110892877Y-63327381D01*
X110919364Y-63243883D01*
X110942505Y-63165760D01*
X110946735Y-63157599D01*
X110951295Y-63143225D01*
X110991172Y-63071872D01*
X111026017Y-63004651D01*
X111035334Y-62992853D01*
X111045549Y-62974576D01*
X111095155Y-62917106D01*
X111138486Y-62862240D01*
X111154289Y-62848600D01*
X111171790Y-62828324D01*
X111227325Y-62785557D01*
X111275858Y-62743664D01*
X111299015Y-62730348D01*
X111324861Y-62710444D01*
X111382616Y-62682275D01*
X111433172Y-62653204D01*
X111463948Y-62642607D01*
X111498508Y-62625751D01*
X111555105Y-62611219D01*
X111604751Y-62594125D01*
X111642741Y-62588718D01*
X111685639Y-62577704D01*
X111738193Y-62575134D01*
X111784410Y-62568556D01*
X111828547Y-62570714D01*
X111878608Y-62568266D01*
X111924845Y-62575424D01*
G37*
G36*
X109052105Y-62575424D02*
G01*
X109092922Y-62577420D01*
X109141512Y-62589265D01*
X109196794Y-62597823D01*
X109235180Y-62612098D01*
X109269226Y-62620398D01*
X109319984Y-62643637D01*
X109377877Y-62665167D01*
X109407663Y-62683780D01*
X109434226Y-62695941D01*
X109484405Y-62731733D01*
X109541720Y-62767548D01*
X109562926Y-62787742D01*
X109581960Y-62801319D01*
X109628464Y-62850153D01*
X109681630Y-62900782D01*
X109695009Y-62920032D01*
X109707107Y-62932736D01*
X109746679Y-62994376D01*
X109791892Y-63059429D01*
X109798821Y-63075594D01*
X109805140Y-63085438D01*
X109834484Y-63158804D01*
X109868002Y-63237006D01*
X109870362Y-63248505D01*
X109872533Y-63253932D01*
X109888552Y-63337120D01*
X109906850Y-63426260D01*
X109906774Y-63448086D01*
X109906328Y-63618738D01*
X109906176Y-63619506D01*
X109906153Y-63626097D01*
X109887417Y-63714242D01*
X109871112Y-63796585D01*
X109868598Y-63802775D01*
X109865984Y-63815075D01*
X109832255Y-63892277D01*
X109802840Y-63964719D01*
X109796016Y-63975227D01*
X109788637Y-63992117D01*
X109743443Y-64056183D01*
X109704007Y-64116910D01*
X109691262Y-64130154D01*
X109677270Y-64149989D01*
X109624366Y-64199669D01*
X109578172Y-64247672D01*
X109558383Y-64261631D01*
X109536433Y-64282244D01*
X109479582Y-64317219D01*
X109429889Y-64352273D01*
X109402501Y-64364639D01*
X109371879Y-64383478D01*
X109314630Y-64404315D01*
X109264500Y-64426950D01*
X109229596Y-64435265D01*
X109190330Y-64449557D01*
X109135813Y-64457607D01*
X109087970Y-64469005D01*
X109046309Y-64470824D01*
X108999203Y-64477780D01*
X108950002Y-64475029D01*
X108906674Y-64476921D01*
X108859657Y-64469978D01*
X108806304Y-64466995D01*
X108764295Y-64455896D01*
X108727153Y-64450411D01*
X108676814Y-64432782D01*
X108619513Y-64417643D01*
X108585815Y-64400915D01*
X108555883Y-64390433D01*
X108504764Y-64360681D01*
X108446461Y-64331739D01*
X108421414Y-64312170D01*
X108399047Y-64299152D01*
X108350101Y-64256454D01*
X108294218Y-64212793D01*
X108277403Y-64193036D01*
X108262295Y-64179856D01*
X108218725Y-64124089D01*
X108169001Y-64065664D01*
X108159321Y-64048057D01*
X108150575Y-64036862D01*
X108115698Y-63968705D01*
X108075926Y-63896361D01*
X108071713Y-63882753D01*
X108067908Y-63875316D01*
X108044945Y-63796278D01*
X108018795Y-63711801D01*
X108017976Y-63703453D01*
X108017279Y-63701052D01*
X108009174Y-63613678D01*
X107999942Y-63519523D01*
X108009722Y-63426469D01*
X108018224Y-63339762D01*
X108019172Y-63336561D01*
X108020137Y-63327381D01*
X108046624Y-63243883D01*
X108069765Y-63165760D01*
X108073995Y-63157599D01*
X108078555Y-63143225D01*
X108118432Y-63071872D01*
X108153277Y-63004651D01*
X108162594Y-62992853D01*
X108172809Y-62974576D01*
X108222415Y-62917106D01*
X108265746Y-62862240D01*
X108281549Y-62848600D01*
X108299050Y-62828324D01*
X108354585Y-62785557D01*
X108403118Y-62743664D01*
X108426275Y-62730348D01*
X108452121Y-62710444D01*
X108509876Y-62682275D01*
X108560432Y-62653204D01*
X108591208Y-62642607D01*
X108625768Y-62625751D01*
X108682365Y-62611219D01*
X108732011Y-62594125D01*
X108770001Y-62588718D01*
X108812899Y-62577704D01*
X108865453Y-62575134D01*
X108911670Y-62568556D01*
X108955807Y-62570714D01*
X109005868Y-62568266D01*
X109052105Y-62575424D01*
G37*
G36*
X122779137Y-62669567D02*
G01*
X122820927Y-62667523D01*
X122865217Y-62674380D01*
X122915971Y-62677217D01*
X122956324Y-62688484D01*
X122991782Y-62693973D01*
X123039365Y-62711669D01*
X123094059Y-62726940D01*
X123125783Y-62743808D01*
X123153820Y-62754235D01*
X123201918Y-62784290D01*
X123257314Y-62813745D01*
X123280129Y-62833162D01*
X123300432Y-62845849D01*
X123345802Y-62889054D01*
X123398122Y-62933582D01*
X123412624Y-62952688D01*
X123425633Y-62965076D01*
X123464777Y-63021396D01*
X123509912Y-63080859D01*
X123517463Y-63097200D01*
X123524303Y-63107042D01*
X123553669Y-63175558D01*
X123587468Y-63248706D01*
X123590046Y-63260433D01*
X123592408Y-63265943D01*
X123608590Y-63344777D01*
X123627172Y-63429292D01*
X123626506Y-63620129D01*
X123607342Y-63704479D01*
X123590604Y-63783226D01*
X123588202Y-63788723D01*
X123585542Y-63800433D01*
X123551230Y-63873350D01*
X123521388Y-63941656D01*
X123514479Y-63951450D01*
X123506816Y-63967735D01*
X123461275Y-64026871D01*
X123421731Y-64082928D01*
X123408633Y-64095228D01*
X123394001Y-64114228D01*
X123341388Y-64158376D01*
X123295705Y-64201275D01*
X123275308Y-64213823D01*
X123252360Y-64233079D01*
X123196761Y-64262146D01*
X123148454Y-64291864D01*
X123120345Y-64302095D01*
X123088502Y-64318742D01*
X123033695Y-64333633D01*
X122985992Y-64350995D01*
X122950501Y-64356236D01*
X122910072Y-64367220D01*
X122859300Y-64369703D01*
X122814964Y-64376250D01*
X122773188Y-64373915D01*
X122725394Y-64376252D01*
X122681153Y-64368769D01*
X122642350Y-64366600D01*
X122596141Y-64354391D01*
X122543084Y-64345417D01*
X122507000Y-64330838D01*
X122475196Y-64322435D01*
X122427058Y-64298540D01*
X122371649Y-64276153D01*
X122344472Y-64257545D01*
X122320343Y-64245567D01*
X122273289Y-64208804D01*
X122219087Y-64171691D01*
X122200630Y-64152036D01*
X122184111Y-64139130D01*
X122141561Y-64089134D01*
X122092515Y-64036905D01*
X122081769Y-64018879D01*
X122072057Y-64007467D01*
X122037562Y-63944722D01*
X121997839Y-63878085D01*
X121993104Y-63863852D01*
X121988771Y-63855970D01*
X121965853Y-63781933D01*
X121939475Y-63702639D01*
X121938533Y-63693675D01*
X121937647Y-63690813D01*
X121929508Y-63607809D01*
X121920148Y-63518753D01*
X121930128Y-63429785D01*
X121938848Y-63346819D01*
X121939754Y-63343961D01*
X121940759Y-63335006D01*
X121967691Y-63255894D01*
X121991124Y-63182022D01*
X121995511Y-63174173D01*
X122000345Y-63159972D01*
X122040543Y-63093598D01*
X122075465Y-63031112D01*
X122085253Y-63019772D01*
X122096128Y-63001816D01*
X122145546Y-62949922D01*
X122188434Y-62900236D01*
X122205040Y-62887448D01*
X122223638Y-62867918D01*
X122278113Y-62831174D01*
X122325411Y-62794750D01*
X122349619Y-62782943D01*
X122376926Y-62764524D01*
X122432480Y-62742528D01*
X122480794Y-62718964D01*
X122512664Y-62710781D01*
X122548840Y-62696458D01*
X122601956Y-62687855D01*
X122648249Y-62675969D01*
X122687064Y-62674071D01*
X122731360Y-62666896D01*
X122779137Y-62669567D01*
G37*
G36*
X115976060Y-62673700D02*
G01*
X115992930Y-62684972D01*
X116004202Y-62701842D01*
X116010609Y-62734053D01*
X116010609Y-64309429D01*
X116008160Y-64321741D01*
X116004202Y-64341640D01*
X115992930Y-64358510D01*
X115976060Y-64369782D01*
X115956161Y-64373740D01*
X115943849Y-64376189D01*
X114368473Y-64376189D01*
X114336262Y-64369782D01*
X114319392Y-64358510D01*
X114308120Y-64341640D01*
X114301713Y-64309429D01*
X114301713Y-62734053D01*
X114308120Y-62701842D01*
X114319392Y-62684972D01*
X114336262Y-62673700D01*
X114368473Y-62667293D01*
X115943849Y-62667293D01*
X115976060Y-62673700D01*
G37*
M02*
