G04 #@! TF.GenerationSoftware,KiCad,Pcbnew,(5.99.0-812-g5d5363396-dirty)*
G04 #@! TF.CreationDate,2020-02-06T23:45:32+01:00*
G04 #@! TF.ProjectId,flex-dip,666c6578-2d64-4697-902e-6b696361645f,rev?*
G04 #@! TF.SameCoordinates,Original*
G04 #@! TF.FileFunction,Legend,Top*
G04 #@! TF.FilePolarity,Positive*
%FSLAX46Y46*%
G04 Gerber Fmt 4.6, Leading zero omitted, Abs format (unit mm)*
G04 Created by KiCad (PCBNEW (5.99.0-812-g5d5363396-dirty)) date 2020-02-06 23:45:32*
%MOMM*%
%LPD*%
G04 APERTURE LIST*
%ADD10C,0.101600*%
%ADD11C,0.100000*%
G04 APERTURE END LIST*
D10*
X114046362Y-72532360D02*
X114094743Y-72483980D01*
X114191505Y-72435599D01*
X114433410Y-72435599D01*
X114530172Y-72483980D01*
X114578553Y-72532360D01*
X114626934Y-72629122D01*
X114626934Y-72725884D01*
X114578553Y-72871027D01*
X113997981Y-73451599D01*
X114626934Y-73451599D01*
X115255886Y-72435599D02*
X115352648Y-72435599D01*
X115449410Y-72483980D01*
X115497791Y-72532360D01*
X115546172Y-72629122D01*
X115594553Y-72822646D01*
X115594553Y-73064551D01*
X115546172Y-73258075D01*
X115497791Y-73354837D01*
X115449410Y-73403218D01*
X115352648Y-73451599D01*
X115255886Y-73451599D01*
X115159124Y-73403218D01*
X115110743Y-73354837D01*
X115062362Y-73258075D01*
X115013981Y-73064551D01*
X115013981Y-72822646D01*
X115062362Y-72629122D01*
X115110743Y-72532360D01*
X115159124Y-72483980D01*
X115255886Y-72435599D01*
X115981600Y-72532360D02*
X116029981Y-72483980D01*
X116126743Y-72435599D01*
X116368648Y-72435599D01*
X116465410Y-72483980D01*
X116513791Y-72532360D01*
X116562172Y-72629122D01*
X116562172Y-72725884D01*
X116513791Y-72871027D01*
X115933220Y-73451599D01*
X116562172Y-73451599D01*
X117191124Y-72435599D02*
X117287886Y-72435599D01*
X117384648Y-72483980D01*
X117433029Y-72532360D01*
X117481410Y-72629122D01*
X117529791Y-72822646D01*
X117529791Y-73064551D01*
X117481410Y-73258075D01*
X117433029Y-73354837D01*
X117384648Y-73403218D01*
X117287886Y-73451599D01*
X117191124Y-73451599D01*
X117094362Y-73403218D01*
X117045981Y-73354837D01*
X116997600Y-73258075D01*
X116949220Y-73064551D01*
X116949220Y-72822646D01*
X116997600Y-72629122D01*
X117045981Y-72532360D01*
X117094362Y-72483980D01*
X117191124Y-72435599D01*
X117965220Y-73064551D02*
X118739315Y-73064551D01*
X119416648Y-72435599D02*
X119513410Y-72435599D01*
X119610172Y-72483980D01*
X119658553Y-72532360D01*
X119706934Y-72629122D01*
X119755315Y-72822646D01*
X119755315Y-73064551D01*
X119706934Y-73258075D01*
X119658553Y-73354837D01*
X119610172Y-73403218D01*
X119513410Y-73451599D01*
X119416648Y-73451599D01*
X119319886Y-73403218D01*
X119271505Y-73354837D01*
X119223124Y-73258075D01*
X119174743Y-73064551D01*
X119174743Y-72822646D01*
X119223124Y-72629122D01*
X119271505Y-72532360D01*
X119319886Y-72483980D01*
X119416648Y-72435599D01*
X120142362Y-72532360D02*
X120190743Y-72483980D01*
X120287505Y-72435599D01*
X120529410Y-72435599D01*
X120626172Y-72483980D01*
X120674553Y-72532360D01*
X120722934Y-72629122D01*
X120722934Y-72725884D01*
X120674553Y-72871027D01*
X120093981Y-73451599D01*
X120722934Y-73451599D01*
X121158362Y-73064551D02*
X121932458Y-73064551D01*
X122609791Y-72435599D02*
X122706553Y-72435599D01*
X122803315Y-72483980D01*
X122851696Y-72532360D01*
X122900077Y-72629122D01*
X122948458Y-72822646D01*
X122948458Y-73064551D01*
X122900077Y-73258075D01*
X122851696Y-73354837D01*
X122803315Y-73403218D01*
X122706553Y-73451599D01*
X122609791Y-73451599D01*
X122513029Y-73403218D01*
X122464648Y-73354837D01*
X122416267Y-73258075D01*
X122367886Y-73064551D01*
X122367886Y-72822646D01*
X122416267Y-72629122D01*
X122464648Y-72532360D01*
X122513029Y-72483980D01*
X122609791Y-72435599D01*
X123819315Y-72435599D02*
X123625791Y-72435599D01*
X123529029Y-72483980D01*
X123480648Y-72532360D01*
X123383886Y-72677503D01*
X123335505Y-72871027D01*
X123335505Y-73258075D01*
X123383886Y-73354837D01*
X123432267Y-73403218D01*
X123529029Y-73451599D01*
X123722553Y-73451599D01*
X123819315Y-73403218D01*
X123867696Y-73354837D01*
X123916077Y-73258075D01*
X123916077Y-73016170D01*
X123867696Y-72919408D01*
X123819315Y-72871027D01*
X123722553Y-72822646D01*
X123529029Y-72822646D01*
X123432267Y-72871027D01*
X123383886Y-72919408D01*
X123335505Y-73016170D01*
X111738591Y-62082317D02*
X111690210Y-62130698D01*
X111545067Y-62179079D01*
X111448305Y-62179079D01*
X111303162Y-62130698D01*
X111206400Y-62033936D01*
X111158020Y-61937174D01*
X111109639Y-61743650D01*
X111109639Y-61598507D01*
X111158020Y-61404983D01*
X111206400Y-61308221D01*
X111303162Y-61211460D01*
X111448305Y-61163079D01*
X111545067Y-61163079D01*
X111690210Y-61211460D01*
X111738591Y-61259840D01*
X112174020Y-62179079D02*
X112174020Y-61501745D01*
X112174020Y-61695269D02*
X112222400Y-61598507D01*
X112270781Y-61550126D01*
X112367543Y-61501745D01*
X112464305Y-61501745D01*
X113238400Y-62179079D02*
X113238400Y-61646888D01*
X113190020Y-61550126D01*
X113093258Y-61501745D01*
X112899734Y-61501745D01*
X112802972Y-61550126D01*
X113238400Y-62130698D02*
X113141639Y-62179079D01*
X112899734Y-62179079D01*
X112802972Y-62130698D01*
X112754591Y-62033936D01*
X112754591Y-61937174D01*
X112802972Y-61840412D01*
X112899734Y-61792031D01*
X113141639Y-61792031D01*
X113238400Y-61743650D01*
X114157639Y-62130698D02*
X114060877Y-62179079D01*
X113867353Y-62179079D01*
X113770591Y-62130698D01*
X113722210Y-62082317D01*
X113673829Y-61985555D01*
X113673829Y-61695269D01*
X113722210Y-61598507D01*
X113770591Y-61550126D01*
X113867353Y-61501745D01*
X114060877Y-61501745D01*
X114157639Y-61550126D01*
X114593067Y-62179079D02*
X114593067Y-61163079D01*
X114689829Y-61792031D02*
X114980115Y-62179079D01*
X114980115Y-61501745D02*
X114593067Y-61888793D01*
X115560686Y-62179079D02*
X115463924Y-62130698D01*
X115415543Y-62033936D01*
X115415543Y-61163079D01*
X116334781Y-62130698D02*
X116238020Y-62179079D01*
X116044496Y-62179079D01*
X115947734Y-62130698D01*
X115899353Y-62033936D01*
X115899353Y-61646888D01*
X115947734Y-61550126D01*
X116044496Y-61501745D01*
X116238020Y-61501745D01*
X116334781Y-61550126D01*
X116383162Y-61646888D01*
X116383162Y-61743650D01*
X115899353Y-61840412D01*
X117931353Y-61646888D02*
X117592686Y-61646888D01*
X117592686Y-62179079D02*
X117592686Y-61163079D01*
X118076496Y-61163079D01*
X118608686Y-62179079D02*
X118511924Y-62130698D01*
X118463543Y-62033936D01*
X118463543Y-61163079D01*
X119382781Y-62130698D02*
X119286020Y-62179079D01*
X119092496Y-62179079D01*
X118995734Y-62130698D01*
X118947353Y-62033936D01*
X118947353Y-61646888D01*
X118995734Y-61550126D01*
X119092496Y-61501745D01*
X119286020Y-61501745D01*
X119382781Y-61550126D01*
X119431162Y-61646888D01*
X119431162Y-61743650D01*
X118947353Y-61840412D01*
X119769829Y-62179079D02*
X120302020Y-61501745D01*
X119769829Y-61501745D02*
X120302020Y-62179079D01*
X121414781Y-62130698D02*
X121559924Y-62179079D01*
X121801829Y-62179079D01*
X121898591Y-62130698D01*
X121946972Y-62082317D01*
X121995353Y-61985555D01*
X121995353Y-61888793D01*
X121946972Y-61792031D01*
X121898591Y-61743650D01*
X121801829Y-61695269D01*
X121608305Y-61646888D01*
X121511543Y-61598507D01*
X121463162Y-61550126D01*
X121414781Y-61453364D01*
X121414781Y-61356602D01*
X121463162Y-61259840D01*
X121511543Y-61211460D01*
X121608305Y-61163079D01*
X121850210Y-61163079D01*
X121995353Y-61211460D01*
X122817829Y-62130698D02*
X122721067Y-62179079D01*
X122527543Y-62179079D01*
X122430781Y-62130698D01*
X122382400Y-62033936D01*
X122382400Y-61646888D01*
X122430781Y-61550126D01*
X122527543Y-61501745D01*
X122721067Y-61501745D01*
X122817829Y-61550126D01*
X122866210Y-61646888D01*
X122866210Y-61743650D01*
X122382400Y-61840412D01*
X123204877Y-61501745D02*
X123398400Y-62179079D01*
X123591924Y-61695269D01*
X123785448Y-62179079D01*
X123978972Y-61501745D01*
X125478781Y-61646888D02*
X125623924Y-61695269D01*
X125672305Y-61743650D01*
X125720686Y-61840412D01*
X125720686Y-61985555D01*
X125672305Y-62082317D01*
X125623924Y-62130698D01*
X125527162Y-62179079D01*
X125140115Y-62179079D01*
X125140115Y-61163079D01*
X125478781Y-61163079D01*
X125575543Y-61211460D01*
X125623924Y-61259840D01*
X125672305Y-61356602D01*
X125672305Y-61453364D01*
X125623924Y-61550126D01*
X125575543Y-61598507D01*
X125478781Y-61646888D01*
X125140115Y-61646888D01*
X126301258Y-62179079D02*
X126204496Y-62130698D01*
X126156115Y-62082317D01*
X126107734Y-61985555D01*
X126107734Y-61695269D01*
X126156115Y-61598507D01*
X126204496Y-61550126D01*
X126301258Y-61501745D01*
X126446400Y-61501745D01*
X126543162Y-61550126D01*
X126591543Y-61598507D01*
X126639924Y-61695269D01*
X126639924Y-61985555D01*
X126591543Y-62082317D01*
X126543162Y-62130698D01*
X126446400Y-62179079D01*
X126301258Y-62179079D01*
X126978591Y-62179079D02*
X127510781Y-61501745D01*
X126978591Y-61501745D02*
X127510781Y-62179079D01*
D11*
X115556161Y-62621741D02*
X115556161Y-62321741D01*
X115556161Y-62321741D02*
X115856161Y-62321741D01*
X122356161Y-62621741D02*
X122356161Y-62321741D01*
X122356161Y-62321741D02*
X122056161Y-62321741D01*
X122356161Y-72021741D02*
X122356161Y-72321741D01*
X122356161Y-72321741D02*
X122056161Y-72321741D01*
X115556161Y-72021741D02*
X115556161Y-72321741D01*
X115556161Y-72321741D02*
X115856161Y-72321741D01*
M02*
