G04 #@! TF.GenerationSoftware,KiCad,Pcbnew,(5.99.0-1406-gfd59660ec)*
G04 #@! TF.CreationDate,2020-04-24T11:46:25+02:00*
G04 #@! TF.ProjectId,flex-dip-v5-py,666c6578-2d64-4697-902d-76352d70792e,rev?*
G04 #@! TF.SameCoordinates,Original*
G04 #@! TF.FileFunction,Copper,L2,Bot*
G04 #@! TF.FilePolarity,Positive*
%FSLAX46Y46*%
G04 Gerber Fmt 4.6, Leading zero omitted, Abs format (unit mm)*
G04 Created by KiCad (PCBNEW (5.99.0-1406-gfd59660ec)) date 2020-04-24 11:46:25*
%MOMM*%
%LPD*%
G01*
G04 APERTURE LIST*
G04 #@! TA.AperFunction,EtchedComponent*
%ADD10C,0.100000*%
G04 #@! TD*
G04 #@! TA.AperFunction,ComponentPad*
%ADD11C,1.600000*%
G04 #@! TD*
G04 #@! TA.AperFunction,ComponentPad*
%ADD12C,1.800000*%
G04 #@! TD*
G04 #@! TA.AperFunction,Conductor*
%ADD13C,2.108200*%
G04 #@! TD*
G04 APERTURE END LIST*
G36*
X119092953Y-65131411D02*
G01*
X119168876Y-65131905D01*
X119223511Y-65133175D01*
X119260520Y-65135587D01*
X119283567Y-65139507D01*
X119296316Y-65145302D01*
X119302431Y-65153339D01*
X119305576Y-65163983D01*
X119305666Y-65164365D01*
X119310834Y-65189387D01*
X119320229Y-65237721D01*
X119332887Y-65304300D01*
X119347845Y-65384054D01*
X119364139Y-65471915D01*
X119365468Y-65479104D01*
X119381711Y-65564380D01*
X119396825Y-65639282D01*
X119409828Y-65699259D01*
X119419735Y-65739757D01*
X119425564Y-65756224D01*
X119425595Y-65756250D01*
X119443963Y-65765360D01*
X119481660Y-65780497D01*
X119530563Y-65798398D01*
X119533317Y-65799370D01*
X119595837Y-65822999D01*
X119668563Y-65852635D01*
X119736314Y-65882102D01*
X119847723Y-65932666D01*
X120094419Y-65764200D01*
X120111795Y-65752351D01*
X120186222Y-65701987D01*
X120252634Y-65657652D01*
X120307059Y-65621956D01*
X120345526Y-65597511D01*
X120364062Y-65586929D01*
X120376763Y-65589355D01*
X120405599Y-65608150D01*
X120450163Y-65645370D01*
X120511690Y-65702060D01*
X120591418Y-65779267D01*
X120598552Y-65786295D01*
X120661816Y-65849262D01*
X120718010Y-65906308D01*
X120763697Y-65953857D01*
X120795434Y-65988337D01*
X120809784Y-66006171D01*
X120809830Y-66006257D01*
X120811653Y-66019835D01*
X120804930Y-66041860D01*
X120787966Y-66075344D01*
X120759064Y-66123301D01*
X120716528Y-66188744D01*
X120658664Y-66274685D01*
X120648803Y-66289191D01*
X120598933Y-66362675D01*
X120554925Y-66427727D01*
X120519400Y-66480457D01*
X120494979Y-66516976D01*
X120484284Y-66533396D01*
X120483478Y-66536874D01*
X120488538Y-66562825D01*
X120503697Y-66605199D01*
X120526483Y-66656768D01*
X120557449Y-66724210D01*
X120592024Y-66804235D01*
X120621386Y-66876669D01*
X120628665Y-66895417D01*
X120647730Y-66943286D01*
X120661735Y-66976636D01*
X120668061Y-66989154D01*
X120675045Y-66990090D01*
X120706433Y-66995501D01*
X120757807Y-67004846D01*
X120823822Y-67017109D01*
X120899133Y-67031272D01*
X120978395Y-67046320D01*
X121056263Y-67061235D01*
X121127390Y-67075001D01*
X121186432Y-67086602D01*
X121228042Y-67095020D01*
X121246877Y-67099239D01*
X121250000Y-67100429D01*
X121257611Y-67106845D01*
X121263274Y-67120505D01*
X121267271Y-67145039D01*
X121269886Y-67184078D01*
X121271404Y-67241253D01*
X121272106Y-67320194D01*
X121272277Y-67424532D01*
X121272277Y-67741839D01*
X121196077Y-67756879D01*
X121186860Y-67758682D01*
X121137911Y-67768020D01*
X121070225Y-67780709D01*
X120991498Y-67795313D01*
X120909420Y-67810395D01*
X120877098Y-67816462D01*
X120804875Y-67831221D01*
X120744686Y-67845177D01*
X120702060Y-67856992D01*
X120682530Y-67865327D01*
X120673680Y-67878945D01*
X120657568Y-67914978D01*
X120641085Y-67961612D01*
X120635283Y-67979074D01*
X120613926Y-68036398D01*
X120586379Y-68104241D01*
X120557127Y-68171395D01*
X120541483Y-68206470D01*
X120519194Y-68258862D01*
X120503877Y-68298098D01*
X120498182Y-68317603D01*
X120498498Y-68319076D01*
X120509301Y-68339769D01*
X120533658Y-68379705D01*
X120569101Y-68435012D01*
X120613156Y-68501821D01*
X120663352Y-68576260D01*
X120828521Y-68818663D01*
X120611523Y-69036023D01*
X120590536Y-69056939D01*
X120526362Y-69119545D01*
X120469010Y-69173535D01*
X120421840Y-69215866D01*
X120388212Y-69243497D01*
X120371487Y-69253383D01*
X120353323Y-69245861D01*
X120315285Y-69224267D01*
X120261746Y-69191191D01*
X120196904Y-69149231D01*
X120124960Y-69100983D01*
X120054295Y-69053331D01*
X119990546Y-69011368D01*
X119938533Y-68978205D01*
X119902299Y-68956418D01*
X119885887Y-68948583D01*
X119884925Y-68948654D01*
X119863123Y-68956378D01*
X119824460Y-68974363D01*
X119776632Y-68999053D01*
X119776130Y-68999324D01*
X119712607Y-69031139D01*
X119669080Y-69046682D01*
X119642072Y-69046725D01*
X119628110Y-69032040D01*
X119622200Y-69017584D01*
X119606249Y-68978871D01*
X119581680Y-68919356D01*
X119549799Y-68842205D01*
X119511913Y-68750581D01*
X119469330Y-68647647D01*
X119423357Y-68536566D01*
X119381687Y-68435512D01*
X119339288Y-68331820D01*
X119301776Y-68239159D01*
X119270408Y-68160682D01*
X119246445Y-68099540D01*
X119231143Y-68058883D01*
X119225763Y-68041865D01*
X119236038Y-68026259D01*
X119264583Y-68000202D01*
X119304991Y-67969927D01*
X119401999Y-67890724D01*
X119488813Y-67789515D01*
X119552342Y-67678156D01*
X119592197Y-67559933D01*
X119607985Y-67438135D01*
X119599316Y-67316050D01*
X119565798Y-67196965D01*
X119507041Y-67084169D01*
X119422652Y-66980951D01*
X119378651Y-66940753D01*
X119273231Y-66869678D01*
X119160430Y-66823341D01*
X119043545Y-66800639D01*
X118925873Y-66800468D01*
X118810710Y-66821727D01*
X118701355Y-66863310D01*
X118601103Y-66924116D01*
X118513253Y-67003041D01*
X118441100Y-67098981D01*
X118387942Y-67210835D01*
X118357077Y-67337497D01*
X118351412Y-67398547D01*
X118359205Y-67530816D01*
X118394304Y-67656306D01*
X118455669Y-67772799D01*
X118542263Y-67878079D01*
X118653049Y-67969927D01*
X118691951Y-67998970D01*
X118721124Y-68025312D01*
X118732277Y-68041840D01*
X118727830Y-68056249D01*
X118713398Y-68094855D01*
X118690193Y-68154241D01*
X118659472Y-68231255D01*
X118622494Y-68322743D01*
X118580516Y-68425556D01*
X118534798Y-68536542D01*
X118493198Y-68637112D01*
X118450242Y-68740987D01*
X118411849Y-68833859D01*
X118379325Y-68912565D01*
X118353978Y-68973939D01*
X118337115Y-69014819D01*
X118330045Y-69032040D01*
X118329963Y-69032244D01*
X118315818Y-69046785D01*
X118288679Y-69046619D01*
X118245043Y-69030967D01*
X118181408Y-68999053D01*
X118176399Y-68996366D01*
X118129145Y-68972190D01*
X118091831Y-68955077D01*
X118072153Y-68948583D01*
X118056025Y-68956258D01*
X118019979Y-68977911D01*
X117968112Y-69010968D01*
X117904465Y-69052850D01*
X117833080Y-69100983D01*
X117762744Y-69148171D01*
X117697690Y-69190307D01*
X117643840Y-69223618D01*
X117605394Y-69245509D01*
X117586554Y-69253383D01*
X117583345Y-69252383D01*
X117560974Y-69236624D01*
X117522753Y-69204073D01*
X117472041Y-69157773D01*
X117412201Y-69100766D01*
X117346591Y-69036098D01*
X117129668Y-68818812D01*
X117298621Y-68570293D01*
X117467573Y-68321773D01*
X117416203Y-68210635D01*
X117416051Y-68210306D01*
X117385203Y-68139458D01*
X117353681Y-68060563D01*
X117328286Y-67990640D01*
X117324443Y-67979362D01*
X117305067Y-67927007D01*
X117287594Y-67886323D01*
X117275408Y-67865327D01*
X117270446Y-67862362D01*
X117240654Y-67852415D01*
X117190067Y-67839545D01*
X117124214Y-67825093D01*
X117048620Y-67810395D01*
X117025977Y-67806250D01*
X116944058Y-67791156D01*
X116867620Y-67776939D01*
X116804357Y-67765035D01*
X116761963Y-67756879D01*
X116685763Y-67741839D01*
X116685763Y-67424532D01*
X116685780Y-67385516D01*
X116686102Y-67290332D01*
X116687053Y-67219295D01*
X116688916Y-67168774D01*
X116691975Y-67135138D01*
X116696514Y-67114758D01*
X116702815Y-67104002D01*
X116711163Y-67099239D01*
X116719244Y-67097310D01*
X116752192Y-67090485D01*
X116804756Y-67080062D01*
X116871589Y-67067058D01*
X116947348Y-67052489D01*
X117026685Y-67037373D01*
X117104257Y-67022725D01*
X117174718Y-67009563D01*
X117232722Y-66998903D01*
X117272924Y-66991761D01*
X117289979Y-66989154D01*
X117291132Y-66987581D01*
X117300405Y-66967159D01*
X117316452Y-66928085D01*
X117336655Y-66876669D01*
X117364692Y-66807393D01*
X117399206Y-66727330D01*
X117431558Y-66656768D01*
X117438972Y-66640929D01*
X117459775Y-66591333D01*
X117472239Y-66553078D01*
X117473883Y-66533396D01*
X117473035Y-66532002D01*
X117459568Y-66511460D01*
X117432870Y-66471556D01*
X117395559Y-66416180D01*
X117350254Y-66349217D01*
X117299572Y-66274557D01*
X117242465Y-66189732D01*
X117199627Y-66123840D01*
X117170480Y-66075518D01*
X117153337Y-66041773D01*
X117146515Y-66019612D01*
X117148326Y-66006042D01*
X117148935Y-66005024D01*
X117165317Y-65985250D01*
X117198715Y-65949215D01*
X117245691Y-65900491D01*
X117302806Y-65842652D01*
X117366623Y-65779267D01*
X117432822Y-65714945D01*
X117497668Y-65654487D01*
X117545319Y-65613695D01*
X117577010Y-65591524D01*
X117593978Y-65586929D01*
X117596195Y-65587961D01*
X117619544Y-65601877D01*
X117661932Y-65629070D01*
X117719389Y-65666929D01*
X117787943Y-65712843D01*
X117863621Y-65764200D01*
X118110318Y-65932666D01*
X118221726Y-65882102D01*
X118224963Y-65880637D01*
X118293363Y-65851005D01*
X118365927Y-65821533D01*
X118427477Y-65798398D01*
X118427749Y-65798302D01*
X118476615Y-65780407D01*
X118514232Y-65765293D01*
X118532477Y-65756224D01*
X118532772Y-65755895D01*
X118538966Y-65737322D01*
X118549159Y-65695085D01*
X118562368Y-65633736D01*
X118577610Y-65557829D01*
X118593901Y-65471915D01*
X118594469Y-65468836D01*
X118610733Y-65381168D01*
X118625628Y-65301781D01*
X118638191Y-65235741D01*
X118647458Y-65188119D01*
X118652464Y-65163983D01*
X118652784Y-65162645D01*
X118656080Y-65152313D01*
X118662758Y-65144546D01*
X118676482Y-65138980D01*
X118700915Y-65135247D01*
X118739722Y-65132982D01*
X118796566Y-65131818D01*
X118875110Y-65131388D01*
X118979020Y-65131326D01*
X118992076Y-65131326D01*
X119092953Y-65131411D01*
G37*
D10*
X119092953Y-65131411D02*
X119168876Y-65131905D01*
X119223511Y-65133175D01*
X119260520Y-65135587D01*
X119283567Y-65139507D01*
X119296316Y-65145302D01*
X119302431Y-65153339D01*
X119305576Y-65163983D01*
X119305666Y-65164365D01*
X119310834Y-65189387D01*
X119320229Y-65237721D01*
X119332887Y-65304300D01*
X119347845Y-65384054D01*
X119364139Y-65471915D01*
X119365468Y-65479104D01*
X119381711Y-65564380D01*
X119396825Y-65639282D01*
X119409828Y-65699259D01*
X119419735Y-65739757D01*
X119425564Y-65756224D01*
X119425595Y-65756250D01*
X119443963Y-65765360D01*
X119481660Y-65780497D01*
X119530563Y-65798398D01*
X119533317Y-65799370D01*
X119595837Y-65822999D01*
X119668563Y-65852635D01*
X119736314Y-65882102D01*
X119847723Y-65932666D01*
X120094419Y-65764200D01*
X120111795Y-65752351D01*
X120186222Y-65701987D01*
X120252634Y-65657652D01*
X120307059Y-65621956D01*
X120345526Y-65597511D01*
X120364062Y-65586929D01*
X120376763Y-65589355D01*
X120405599Y-65608150D01*
X120450163Y-65645370D01*
X120511690Y-65702060D01*
X120591418Y-65779267D01*
X120598552Y-65786295D01*
X120661816Y-65849262D01*
X120718010Y-65906308D01*
X120763697Y-65953857D01*
X120795434Y-65988337D01*
X120809784Y-66006171D01*
X120809830Y-66006257D01*
X120811653Y-66019835D01*
X120804930Y-66041860D01*
X120787966Y-66075344D01*
X120759064Y-66123301D01*
X120716528Y-66188744D01*
X120658664Y-66274685D01*
X120648803Y-66289191D01*
X120598933Y-66362675D01*
X120554925Y-66427727D01*
X120519400Y-66480457D01*
X120494979Y-66516976D01*
X120484284Y-66533396D01*
X120483478Y-66536874D01*
X120488538Y-66562825D01*
X120503697Y-66605199D01*
X120526483Y-66656768D01*
X120557449Y-66724210D01*
X120592024Y-66804235D01*
X120621386Y-66876669D01*
X120628665Y-66895417D01*
X120647730Y-66943286D01*
X120661735Y-66976636D01*
X120668061Y-66989154D01*
X120675045Y-66990090D01*
X120706433Y-66995501D01*
X120757807Y-67004846D01*
X120823822Y-67017109D01*
X120899133Y-67031272D01*
X120978395Y-67046320D01*
X121056263Y-67061235D01*
X121127390Y-67075001D01*
X121186432Y-67086602D01*
X121228042Y-67095020D01*
X121246877Y-67099239D01*
X121250000Y-67100429D01*
X121257611Y-67106845D01*
X121263274Y-67120505D01*
X121267271Y-67145039D01*
X121269886Y-67184078D01*
X121271404Y-67241253D01*
X121272106Y-67320194D01*
X121272277Y-67424532D01*
X121272277Y-67741839D01*
X121196077Y-67756879D01*
X121186860Y-67758682D01*
X121137911Y-67768020D01*
X121070225Y-67780709D01*
X120991498Y-67795313D01*
X120909420Y-67810395D01*
X120877098Y-67816462D01*
X120804875Y-67831221D01*
X120744686Y-67845177D01*
X120702060Y-67856992D01*
X120682530Y-67865327D01*
X120673680Y-67878945D01*
X120657568Y-67914978D01*
X120641085Y-67961612D01*
X120635283Y-67979074D01*
X120613926Y-68036398D01*
X120586379Y-68104241D01*
X120557127Y-68171395D01*
X120541483Y-68206470D01*
X120519194Y-68258862D01*
X120503877Y-68298098D01*
X120498182Y-68317603D01*
X120498498Y-68319076D01*
X120509301Y-68339769D01*
X120533658Y-68379705D01*
X120569101Y-68435012D01*
X120613156Y-68501821D01*
X120663352Y-68576260D01*
X120828521Y-68818663D01*
X120611523Y-69036023D01*
X120590536Y-69056939D01*
X120526362Y-69119545D01*
X120469010Y-69173535D01*
X120421840Y-69215866D01*
X120388212Y-69243497D01*
X120371487Y-69253383D01*
X120353323Y-69245861D01*
X120315285Y-69224267D01*
X120261746Y-69191191D01*
X120196904Y-69149231D01*
X120124960Y-69100983D01*
X120054295Y-69053331D01*
X119990546Y-69011368D01*
X119938533Y-68978205D01*
X119902299Y-68956418D01*
X119885887Y-68948583D01*
X119884925Y-68948654D01*
X119863123Y-68956378D01*
X119824460Y-68974363D01*
X119776632Y-68999053D01*
X119776130Y-68999324D01*
X119712607Y-69031139D01*
X119669080Y-69046682D01*
X119642072Y-69046725D01*
X119628110Y-69032040D01*
X119622200Y-69017584D01*
X119606249Y-68978871D01*
X119581680Y-68919356D01*
X119549799Y-68842205D01*
X119511913Y-68750581D01*
X119469330Y-68647647D01*
X119423357Y-68536566D01*
X119381687Y-68435512D01*
X119339288Y-68331820D01*
X119301776Y-68239159D01*
X119270408Y-68160682D01*
X119246445Y-68099540D01*
X119231143Y-68058883D01*
X119225763Y-68041865D01*
X119236038Y-68026259D01*
X119264583Y-68000202D01*
X119304991Y-67969927D01*
X119401999Y-67890724D01*
X119488813Y-67789515D01*
X119552342Y-67678156D01*
X119592197Y-67559933D01*
X119607985Y-67438135D01*
X119599316Y-67316050D01*
X119565798Y-67196965D01*
X119507041Y-67084169D01*
X119422652Y-66980951D01*
X119378651Y-66940753D01*
X119273231Y-66869678D01*
X119160430Y-66823341D01*
X119043545Y-66800639D01*
X118925873Y-66800468D01*
X118810710Y-66821727D01*
X118701355Y-66863310D01*
X118601103Y-66924116D01*
X118513253Y-67003041D01*
X118441100Y-67098981D01*
X118387942Y-67210835D01*
X118357077Y-67337497D01*
X118351412Y-67398547D01*
X118359205Y-67530816D01*
X118394304Y-67656306D01*
X118455669Y-67772799D01*
X118542263Y-67878079D01*
X118653049Y-67969927D01*
X118691951Y-67998970D01*
X118721124Y-68025312D01*
X118732277Y-68041840D01*
X118727830Y-68056249D01*
X118713398Y-68094855D01*
X118690193Y-68154241D01*
X118659472Y-68231255D01*
X118622494Y-68322743D01*
X118580516Y-68425556D01*
X118534798Y-68536542D01*
X118493198Y-68637112D01*
X118450242Y-68740987D01*
X118411849Y-68833859D01*
X118379325Y-68912565D01*
X118353978Y-68973939D01*
X118337115Y-69014819D01*
X118330045Y-69032040D01*
X118329963Y-69032244D01*
X118315818Y-69046785D01*
X118288679Y-69046619D01*
X118245043Y-69030967D01*
X118181408Y-68999053D01*
X118176399Y-68996366D01*
X118129145Y-68972190D01*
X118091831Y-68955077D01*
X118072153Y-68948583D01*
X118056025Y-68956258D01*
X118019979Y-68977911D01*
X117968112Y-69010968D01*
X117904465Y-69052850D01*
X117833080Y-69100983D01*
X117762744Y-69148171D01*
X117697690Y-69190307D01*
X117643840Y-69223618D01*
X117605394Y-69245509D01*
X117586554Y-69253383D01*
X117583345Y-69252383D01*
X117560974Y-69236624D01*
X117522753Y-69204073D01*
X117472041Y-69157773D01*
X117412201Y-69100766D01*
X117346591Y-69036098D01*
X117129668Y-68818812D01*
X117298621Y-68570293D01*
X117467573Y-68321773D01*
X117416203Y-68210635D01*
X117416051Y-68210306D01*
X117385203Y-68139458D01*
X117353681Y-68060563D01*
X117328286Y-67990640D01*
X117324443Y-67979362D01*
X117305067Y-67927007D01*
X117287594Y-67886323D01*
X117275408Y-67865327D01*
X117270446Y-67862362D01*
X117240654Y-67852415D01*
X117190067Y-67839545D01*
X117124214Y-67825093D01*
X117048620Y-67810395D01*
X117025977Y-67806250D01*
X116944058Y-67791156D01*
X116867620Y-67776939D01*
X116804357Y-67765035D01*
X116761963Y-67756879D01*
X116685763Y-67741839D01*
X116685763Y-67424532D01*
X116685780Y-67385516D01*
X116686102Y-67290332D01*
X116687053Y-67219295D01*
X116688916Y-67168774D01*
X116691975Y-67135138D01*
X116696514Y-67114758D01*
X116702815Y-67104002D01*
X116711163Y-67099239D01*
X116719244Y-67097310D01*
X116752192Y-67090485D01*
X116804756Y-67080062D01*
X116871589Y-67067058D01*
X116947348Y-67052489D01*
X117026685Y-67037373D01*
X117104257Y-67022725D01*
X117174718Y-67009563D01*
X117232722Y-66998903D01*
X117272924Y-66991761D01*
X117289979Y-66989154D01*
X117291132Y-66987581D01*
X117300405Y-66967159D01*
X117316452Y-66928085D01*
X117336655Y-66876669D01*
X117364692Y-66807393D01*
X117399206Y-66727330D01*
X117431558Y-66656768D01*
X117438972Y-66640929D01*
X117459775Y-66591333D01*
X117472239Y-66553078D01*
X117473883Y-66533396D01*
X117473035Y-66532002D01*
X117459568Y-66511460D01*
X117432870Y-66471556D01*
X117395559Y-66416180D01*
X117350254Y-66349217D01*
X117299572Y-66274557D01*
X117242465Y-66189732D01*
X117199627Y-66123840D01*
X117170480Y-66075518D01*
X117153337Y-66041773D01*
X117146515Y-66019612D01*
X117148326Y-66006042D01*
X117148935Y-66005024D01*
X117165317Y-65985250D01*
X117198715Y-65949215D01*
X117245691Y-65900491D01*
X117302806Y-65842652D01*
X117366623Y-65779267D01*
X117432822Y-65714945D01*
X117497668Y-65654487D01*
X117545319Y-65613695D01*
X117577010Y-65591524D01*
X117593978Y-65586929D01*
X117596195Y-65587961D01*
X117619544Y-65601877D01*
X117661932Y-65629070D01*
X117719389Y-65666929D01*
X117787943Y-65712843D01*
X117863621Y-65764200D01*
X118110318Y-65932666D01*
X118221726Y-65882102D01*
X118224963Y-65880637D01*
X118293363Y-65851005D01*
X118365927Y-65821533D01*
X118427477Y-65798398D01*
X118427749Y-65798302D01*
X118476615Y-65780407D01*
X118514232Y-65765293D01*
X118532477Y-65756224D01*
X118532772Y-65755895D01*
X118538966Y-65737322D01*
X118549159Y-65695085D01*
X118562368Y-65633736D01*
X118577610Y-65557829D01*
X118593901Y-65471915D01*
X118594469Y-65468836D01*
X118610733Y-65381168D01*
X118625628Y-65301781D01*
X118638191Y-65235741D01*
X118647458Y-65188119D01*
X118652464Y-65163983D01*
X118652784Y-65162645D01*
X118656080Y-65152313D01*
X118662758Y-65144546D01*
X118676482Y-65138980D01*
X118700915Y-65135247D01*
X118739722Y-65132982D01*
X118796566Y-65131818D01*
X118875110Y-65131388D01*
X118979020Y-65131326D01*
X118992076Y-65131326D01*
X119092953Y-65131411D01*
D11*
X122760740Y-63515240D03*
X122760740Y-66055240D03*
X122760740Y-68595240D03*
X122760740Y-71135240D03*
X115140740Y-71135240D03*
X115140740Y-68595240D03*
X115140740Y-66055240D03*
X115140740Y-63515240D03*
X115140740Y-63515240D03*
X115140740Y-66055240D03*
X115140740Y-68595240D03*
X115140740Y-71135240D03*
X122760740Y-71135240D03*
X122760740Y-68595240D03*
X122760740Y-66055240D03*
X122760740Y-63515240D03*
D12*
X108955840Y-63522860D03*
X111828580Y-63522860D03*
X111833660Y-71135240D03*
X128856740Y-63535560D03*
X108960920Y-66065400D03*
X108968540Y-71137780D03*
X126184660Y-63533020D03*
X111828580Y-66065400D03*
X126207520Y-71155560D03*
X126159260Y-68607940D03*
X111823500Y-68597780D03*
X108971080Y-68590160D03*
X128866900Y-71163180D03*
X128869440Y-66075560D03*
X128859280Y-68605400D03*
X126204980Y-66070480D03*
D13*
X108955840Y-63522860D02*
X111828580Y-63522860D01*
X111828580Y-66065400D02*
X115156161Y-66061741D01*
X126184660Y-63533020D02*
X128856740Y-63535560D01*
X126204980Y-66070480D02*
X128869440Y-66075560D01*
X126159260Y-68607940D02*
X128859280Y-68605400D01*
X126207520Y-71155560D02*
X128866900Y-71163180D01*
X108968540Y-71137780D02*
X111833660Y-71135240D01*
X111823500Y-68597780D02*
X115156161Y-68601741D01*
X108971080Y-68590160D02*
X111823500Y-68597780D01*
X108960920Y-66065400D02*
X111828580Y-66065400D01*
X111828580Y-63522860D02*
X115140740Y-63515240D01*
X111833660Y-71135240D02*
X115156161Y-71141741D01*
X122776161Y-63521741D02*
X126184660Y-63533020D01*
X122760740Y-66055240D02*
X126204980Y-66070480D01*
X122760740Y-68595240D02*
X126159260Y-68607940D01*
X122776161Y-71141741D02*
X126207520Y-71155560D01*
M02*
