G04 #@! TF.GenerationSoftware,KiCad,Pcbnew,(5.99.0-1023-gd6706c257)*
G04 #@! TF.CreationDate,2020-03-03T23:23:20+01:00*
G04 #@! TF.ProjectId,flex-dip,666c6578-2d64-4697-902e-6b696361645f,rev?*
G04 #@! TF.SameCoordinates,Original*
G04 #@! TF.FileFunction,Copper,L2,Bot*
G04 #@! TF.FilePolarity,Positive*
%FSLAX46Y46*%
G04 Gerber Fmt 4.6, Leading zero omitted, Abs format (unit mm)*
G04 Created by KiCad (PCBNEW (5.99.0-1023-gd6706c257)) date 2020-03-03 23:23:20*
%MOMM*%
%LPD*%
G01*
G04 APERTURE LIST*
%ADD10C,0.010000*%
%ADD11C,1.800000*%
%ADD12C,1.600000*%
%ADD13R,1.600000X1.600000*%
G04 APERTURE END LIST*
G36*
X119092613Y-65126411D02*
G01*
X119168536Y-65126905D01*
X119223171Y-65128175D01*
X119260180Y-65130587D01*
X119283227Y-65134507D01*
X119295976Y-65140302D01*
X119302091Y-65148339D01*
X119305236Y-65158983D01*
X119305326Y-65159365D01*
X119310494Y-65184387D01*
X119319889Y-65232721D01*
X119332547Y-65299300D01*
X119347505Y-65379054D01*
X119363799Y-65466915D01*
X119365128Y-65474104D01*
X119381371Y-65559380D01*
X119396485Y-65634282D01*
X119409488Y-65694259D01*
X119419395Y-65734757D01*
X119425224Y-65751224D01*
X119425255Y-65751250D01*
X119443623Y-65760360D01*
X119481320Y-65775497D01*
X119530223Y-65793398D01*
X119532977Y-65794370D01*
X119595497Y-65817999D01*
X119668223Y-65847635D01*
X119735974Y-65877102D01*
X119847383Y-65927666D01*
X120094079Y-65759200D01*
X120111455Y-65747351D01*
X120185882Y-65696987D01*
X120252294Y-65652652D01*
X120306719Y-65616956D01*
X120345186Y-65592511D01*
X120363722Y-65581929D01*
X120376423Y-65584355D01*
X120405259Y-65603150D01*
X120449823Y-65640370D01*
X120511350Y-65697060D01*
X120591078Y-65774267D01*
X120598212Y-65781295D01*
X120661476Y-65844262D01*
X120717670Y-65901308D01*
X120763357Y-65948857D01*
X120795094Y-65983337D01*
X120809444Y-66001171D01*
X120809490Y-66001257D01*
X120811313Y-66014835D01*
X120804590Y-66036860D01*
X120787626Y-66070344D01*
X120758724Y-66118301D01*
X120716188Y-66183744D01*
X120658324Y-66269685D01*
X120648463Y-66284191D01*
X120598593Y-66357675D01*
X120554585Y-66422727D01*
X120519060Y-66475457D01*
X120494639Y-66511976D01*
X120483944Y-66528396D01*
X120483138Y-66531874D01*
X120488198Y-66557825D01*
X120503357Y-66600199D01*
X120526143Y-66651768D01*
X120557109Y-66719210D01*
X120591684Y-66799235D01*
X120621046Y-66871669D01*
X120628325Y-66890417D01*
X120647390Y-66938286D01*
X120661395Y-66971636D01*
X120667721Y-66984154D01*
X120674705Y-66985090D01*
X120706093Y-66990501D01*
X120757467Y-66999846D01*
X120823482Y-67012109D01*
X120898793Y-67026272D01*
X120978055Y-67041320D01*
X121055923Y-67056235D01*
X121127050Y-67070001D01*
X121186092Y-67081602D01*
X121227702Y-67090020D01*
X121246537Y-67094239D01*
X121249660Y-67095429D01*
X121257271Y-67101845D01*
X121262934Y-67115505D01*
X121266931Y-67140039D01*
X121269546Y-67179078D01*
X121271064Y-67236253D01*
X121271766Y-67315194D01*
X121271937Y-67419532D01*
X121271937Y-67736839D01*
X121195737Y-67751879D01*
X121186520Y-67753682D01*
X121137571Y-67763020D01*
X121069885Y-67775709D01*
X120991158Y-67790313D01*
X120909080Y-67805395D01*
X120876758Y-67811462D01*
X120804535Y-67826221D01*
X120744346Y-67840177D01*
X120701720Y-67851992D01*
X120682190Y-67860327D01*
X120673340Y-67873945D01*
X120657228Y-67909978D01*
X120640745Y-67956612D01*
X120634943Y-67974074D01*
X120613586Y-68031398D01*
X120586039Y-68099241D01*
X120556787Y-68166395D01*
X120541143Y-68201470D01*
X120518854Y-68253862D01*
X120503537Y-68293098D01*
X120497842Y-68312603D01*
X120498158Y-68314076D01*
X120508961Y-68334769D01*
X120533318Y-68374705D01*
X120568761Y-68430012D01*
X120612816Y-68496821D01*
X120663012Y-68571260D01*
X120828181Y-68813663D01*
X120611183Y-69031023D01*
X120590196Y-69051939D01*
X120526022Y-69114545D01*
X120468670Y-69168535D01*
X120421500Y-69210866D01*
X120387872Y-69238497D01*
X120371147Y-69248383D01*
X120352983Y-69240861D01*
X120314945Y-69219267D01*
X120261406Y-69186191D01*
X120196564Y-69144231D01*
X120124620Y-69095983D01*
X120053955Y-69048331D01*
X119990206Y-69006368D01*
X119938193Y-68973205D01*
X119901959Y-68951418D01*
X119885547Y-68943583D01*
X119884585Y-68943654D01*
X119862783Y-68951378D01*
X119824120Y-68969363D01*
X119776292Y-68994053D01*
X119775790Y-68994324D01*
X119712267Y-69026139D01*
X119668740Y-69041682D01*
X119641732Y-69041725D01*
X119627770Y-69027040D01*
X119621860Y-69012584D01*
X119605909Y-68973871D01*
X119581340Y-68914356D01*
X119549459Y-68837205D01*
X119511573Y-68745581D01*
X119468990Y-68642647D01*
X119423017Y-68531566D01*
X119381347Y-68430512D01*
X119338948Y-68326820D01*
X119301436Y-68234159D01*
X119270068Y-68155682D01*
X119246105Y-68094540D01*
X119230803Y-68053883D01*
X119225423Y-68036865D01*
X119235698Y-68021259D01*
X119264243Y-67995202D01*
X119304651Y-67964927D01*
X119401659Y-67885724D01*
X119488473Y-67784515D01*
X119552002Y-67673156D01*
X119591857Y-67554933D01*
X119607645Y-67433135D01*
X119598976Y-67311050D01*
X119565458Y-67191965D01*
X119506701Y-67079169D01*
X119422312Y-66975951D01*
X119378311Y-66935753D01*
X119272891Y-66864678D01*
X119160090Y-66818341D01*
X119043205Y-66795639D01*
X118925533Y-66795468D01*
X118810370Y-66816727D01*
X118701015Y-66858310D01*
X118600763Y-66919116D01*
X118512913Y-66998041D01*
X118440760Y-67093981D01*
X118387602Y-67205835D01*
X118356737Y-67332497D01*
X118351072Y-67393547D01*
X118358865Y-67525816D01*
X118393964Y-67651306D01*
X118455329Y-67767799D01*
X118541923Y-67873079D01*
X118652709Y-67964927D01*
X118691611Y-67993970D01*
X118720784Y-68020312D01*
X118731937Y-68036840D01*
X118727490Y-68051249D01*
X118713058Y-68089855D01*
X118689853Y-68149241D01*
X118659132Y-68226255D01*
X118622154Y-68317743D01*
X118580176Y-68420556D01*
X118534458Y-68531542D01*
X118492858Y-68632112D01*
X118449902Y-68735987D01*
X118411509Y-68828859D01*
X118378985Y-68907565D01*
X118353638Y-68968939D01*
X118336775Y-69009819D01*
X118329705Y-69027040D01*
X118329623Y-69027244D01*
X118315478Y-69041785D01*
X118288339Y-69041619D01*
X118244703Y-69025967D01*
X118181068Y-68994053D01*
X118176059Y-68991366D01*
X118128805Y-68967190D01*
X118091491Y-68950077D01*
X118071813Y-68943583D01*
X118055685Y-68951258D01*
X118019639Y-68972911D01*
X117967772Y-69005968D01*
X117904125Y-69047850D01*
X117832740Y-69095983D01*
X117762404Y-69143171D01*
X117697350Y-69185307D01*
X117643500Y-69218618D01*
X117605054Y-69240509D01*
X117586214Y-69248383D01*
X117583005Y-69247383D01*
X117560634Y-69231624D01*
X117522413Y-69199073D01*
X117471701Y-69152773D01*
X117411861Y-69095766D01*
X117346251Y-69031098D01*
X117129328Y-68813812D01*
X117298281Y-68565293D01*
X117467233Y-68316773D01*
X117415863Y-68205635D01*
X117415711Y-68205306D01*
X117384863Y-68134458D01*
X117353341Y-68055563D01*
X117327946Y-67985640D01*
X117324103Y-67974362D01*
X117304727Y-67922007D01*
X117287254Y-67881323D01*
X117275068Y-67860327D01*
X117270106Y-67857362D01*
X117240314Y-67847415D01*
X117189727Y-67834545D01*
X117123874Y-67820093D01*
X117048280Y-67805395D01*
X117025637Y-67801250D01*
X116943718Y-67786156D01*
X116867280Y-67771939D01*
X116804017Y-67760035D01*
X116761623Y-67751879D01*
X116685423Y-67736839D01*
X116685423Y-67419532D01*
X116685440Y-67380516D01*
X116685762Y-67285332D01*
X116686713Y-67214295D01*
X116688576Y-67163774D01*
X116691635Y-67130138D01*
X116696174Y-67109758D01*
X116702475Y-67099002D01*
X116710823Y-67094239D01*
X116718904Y-67092310D01*
X116751852Y-67085485D01*
X116804416Y-67075062D01*
X116871249Y-67062058D01*
X116947008Y-67047489D01*
X117026345Y-67032373D01*
X117103917Y-67017725D01*
X117174378Y-67004563D01*
X117232382Y-66993903D01*
X117272584Y-66986761D01*
X117289639Y-66984154D01*
X117290792Y-66982581D01*
X117300065Y-66962159D01*
X117316112Y-66923085D01*
X117336315Y-66871669D01*
X117364352Y-66802393D01*
X117398866Y-66722330D01*
X117431218Y-66651768D01*
X117438632Y-66635929D01*
X117459435Y-66586333D01*
X117471899Y-66548078D01*
X117473543Y-66528396D01*
X117472695Y-66527002D01*
X117459228Y-66506460D01*
X117432530Y-66466556D01*
X117395219Y-66411180D01*
X117349914Y-66344217D01*
X117299232Y-66269557D01*
X117242125Y-66184732D01*
X117199287Y-66118840D01*
X117170140Y-66070518D01*
X117152997Y-66036773D01*
X117146175Y-66014612D01*
X117147986Y-66001042D01*
X117148595Y-66000024D01*
X117164977Y-65980250D01*
X117198375Y-65944215D01*
X117245351Y-65895491D01*
X117302466Y-65837652D01*
X117366283Y-65774267D01*
X117432482Y-65709945D01*
X117497328Y-65649487D01*
X117544979Y-65608695D01*
X117576670Y-65586524D01*
X117593638Y-65581929D01*
X117595855Y-65582961D01*
X117619204Y-65596877D01*
X117661592Y-65624070D01*
X117719049Y-65661929D01*
X117787603Y-65707843D01*
X117863281Y-65759200D01*
X118109978Y-65927666D01*
X118221386Y-65877102D01*
X118224623Y-65875637D01*
X118293023Y-65846005D01*
X118365587Y-65816533D01*
X118427137Y-65793398D01*
X118427409Y-65793302D01*
X118476275Y-65775407D01*
X118513892Y-65760293D01*
X118532137Y-65751224D01*
X118532432Y-65750895D01*
X118538626Y-65732322D01*
X118548819Y-65690085D01*
X118562028Y-65628736D01*
X118577270Y-65552829D01*
X118593561Y-65466915D01*
X118594129Y-65463836D01*
X118610393Y-65376168D01*
X118625288Y-65296781D01*
X118637851Y-65230741D01*
X118647118Y-65183119D01*
X118652124Y-65158983D01*
X118652444Y-65157645D01*
X118655740Y-65147313D01*
X118662418Y-65139546D01*
X118676142Y-65133980D01*
X118700575Y-65130247D01*
X118739382Y-65127982D01*
X118796226Y-65126818D01*
X118874770Y-65126388D01*
X118978680Y-65126326D01*
X118991736Y-65126326D01*
X119092613Y-65126411D01*
G37*
D10*
X119092613Y-65126411D02*
X119168536Y-65126905D01*
X119223171Y-65128175D01*
X119260180Y-65130587D01*
X119283227Y-65134507D01*
X119295976Y-65140302D01*
X119302091Y-65148339D01*
X119305236Y-65158983D01*
X119305326Y-65159365D01*
X119310494Y-65184387D01*
X119319889Y-65232721D01*
X119332547Y-65299300D01*
X119347505Y-65379054D01*
X119363799Y-65466915D01*
X119365128Y-65474104D01*
X119381371Y-65559380D01*
X119396485Y-65634282D01*
X119409488Y-65694259D01*
X119419395Y-65734757D01*
X119425224Y-65751224D01*
X119425255Y-65751250D01*
X119443623Y-65760360D01*
X119481320Y-65775497D01*
X119530223Y-65793398D01*
X119532977Y-65794370D01*
X119595497Y-65817999D01*
X119668223Y-65847635D01*
X119735974Y-65877102D01*
X119847383Y-65927666D01*
X120094079Y-65759200D01*
X120111455Y-65747351D01*
X120185882Y-65696987D01*
X120252294Y-65652652D01*
X120306719Y-65616956D01*
X120345186Y-65592511D01*
X120363722Y-65581929D01*
X120376423Y-65584355D01*
X120405259Y-65603150D01*
X120449823Y-65640370D01*
X120511350Y-65697060D01*
X120591078Y-65774267D01*
X120598212Y-65781295D01*
X120661476Y-65844262D01*
X120717670Y-65901308D01*
X120763357Y-65948857D01*
X120795094Y-65983337D01*
X120809444Y-66001171D01*
X120809490Y-66001257D01*
X120811313Y-66014835D01*
X120804590Y-66036860D01*
X120787626Y-66070344D01*
X120758724Y-66118301D01*
X120716188Y-66183744D01*
X120658324Y-66269685D01*
X120648463Y-66284191D01*
X120598593Y-66357675D01*
X120554585Y-66422727D01*
X120519060Y-66475457D01*
X120494639Y-66511976D01*
X120483944Y-66528396D01*
X120483138Y-66531874D01*
X120488198Y-66557825D01*
X120503357Y-66600199D01*
X120526143Y-66651768D01*
X120557109Y-66719210D01*
X120591684Y-66799235D01*
X120621046Y-66871669D01*
X120628325Y-66890417D01*
X120647390Y-66938286D01*
X120661395Y-66971636D01*
X120667721Y-66984154D01*
X120674705Y-66985090D01*
X120706093Y-66990501D01*
X120757467Y-66999846D01*
X120823482Y-67012109D01*
X120898793Y-67026272D01*
X120978055Y-67041320D01*
X121055923Y-67056235D01*
X121127050Y-67070001D01*
X121186092Y-67081602D01*
X121227702Y-67090020D01*
X121246537Y-67094239D01*
X121249660Y-67095429D01*
X121257271Y-67101845D01*
X121262934Y-67115505D01*
X121266931Y-67140039D01*
X121269546Y-67179078D01*
X121271064Y-67236253D01*
X121271766Y-67315194D01*
X121271937Y-67419532D01*
X121271937Y-67736839D01*
X121195737Y-67751879D01*
X121186520Y-67753682D01*
X121137571Y-67763020D01*
X121069885Y-67775709D01*
X120991158Y-67790313D01*
X120909080Y-67805395D01*
X120876758Y-67811462D01*
X120804535Y-67826221D01*
X120744346Y-67840177D01*
X120701720Y-67851992D01*
X120682190Y-67860327D01*
X120673340Y-67873945D01*
X120657228Y-67909978D01*
X120640745Y-67956612D01*
X120634943Y-67974074D01*
X120613586Y-68031398D01*
X120586039Y-68099241D01*
X120556787Y-68166395D01*
X120541143Y-68201470D01*
X120518854Y-68253862D01*
X120503537Y-68293098D01*
X120497842Y-68312603D01*
X120498158Y-68314076D01*
X120508961Y-68334769D01*
X120533318Y-68374705D01*
X120568761Y-68430012D01*
X120612816Y-68496821D01*
X120663012Y-68571260D01*
X120828181Y-68813663D01*
X120611183Y-69031023D01*
X120590196Y-69051939D01*
X120526022Y-69114545D01*
X120468670Y-69168535D01*
X120421500Y-69210866D01*
X120387872Y-69238497D01*
X120371147Y-69248383D01*
X120352983Y-69240861D01*
X120314945Y-69219267D01*
X120261406Y-69186191D01*
X120196564Y-69144231D01*
X120124620Y-69095983D01*
X120053955Y-69048331D01*
X119990206Y-69006368D01*
X119938193Y-68973205D01*
X119901959Y-68951418D01*
X119885547Y-68943583D01*
X119884585Y-68943654D01*
X119862783Y-68951378D01*
X119824120Y-68969363D01*
X119776292Y-68994053D01*
X119775790Y-68994324D01*
X119712267Y-69026139D01*
X119668740Y-69041682D01*
X119641732Y-69041725D01*
X119627770Y-69027040D01*
X119621860Y-69012584D01*
X119605909Y-68973871D01*
X119581340Y-68914356D01*
X119549459Y-68837205D01*
X119511573Y-68745581D01*
X119468990Y-68642647D01*
X119423017Y-68531566D01*
X119381347Y-68430512D01*
X119338948Y-68326820D01*
X119301436Y-68234159D01*
X119270068Y-68155682D01*
X119246105Y-68094540D01*
X119230803Y-68053883D01*
X119225423Y-68036865D01*
X119235698Y-68021259D01*
X119264243Y-67995202D01*
X119304651Y-67964927D01*
X119401659Y-67885724D01*
X119488473Y-67784515D01*
X119552002Y-67673156D01*
X119591857Y-67554933D01*
X119607645Y-67433135D01*
X119598976Y-67311050D01*
X119565458Y-67191965D01*
X119506701Y-67079169D01*
X119422312Y-66975951D01*
X119378311Y-66935753D01*
X119272891Y-66864678D01*
X119160090Y-66818341D01*
X119043205Y-66795639D01*
X118925533Y-66795468D01*
X118810370Y-66816727D01*
X118701015Y-66858310D01*
X118600763Y-66919116D01*
X118512913Y-66998041D01*
X118440760Y-67093981D01*
X118387602Y-67205835D01*
X118356737Y-67332497D01*
X118351072Y-67393547D01*
X118358865Y-67525816D01*
X118393964Y-67651306D01*
X118455329Y-67767799D01*
X118541923Y-67873079D01*
X118652709Y-67964927D01*
X118691611Y-67993970D01*
X118720784Y-68020312D01*
X118731937Y-68036840D01*
X118727490Y-68051249D01*
X118713058Y-68089855D01*
X118689853Y-68149241D01*
X118659132Y-68226255D01*
X118622154Y-68317743D01*
X118580176Y-68420556D01*
X118534458Y-68531542D01*
X118492858Y-68632112D01*
X118449902Y-68735987D01*
X118411509Y-68828859D01*
X118378985Y-68907565D01*
X118353638Y-68968939D01*
X118336775Y-69009819D01*
X118329705Y-69027040D01*
X118329623Y-69027244D01*
X118315478Y-69041785D01*
X118288339Y-69041619D01*
X118244703Y-69025967D01*
X118181068Y-68994053D01*
X118176059Y-68991366D01*
X118128805Y-68967190D01*
X118091491Y-68950077D01*
X118071813Y-68943583D01*
X118055685Y-68951258D01*
X118019639Y-68972911D01*
X117967772Y-69005968D01*
X117904125Y-69047850D01*
X117832740Y-69095983D01*
X117762404Y-69143171D01*
X117697350Y-69185307D01*
X117643500Y-69218618D01*
X117605054Y-69240509D01*
X117586214Y-69248383D01*
X117583005Y-69247383D01*
X117560634Y-69231624D01*
X117522413Y-69199073D01*
X117471701Y-69152773D01*
X117411861Y-69095766D01*
X117346251Y-69031098D01*
X117129328Y-68813812D01*
X117298281Y-68565293D01*
X117467233Y-68316773D01*
X117415863Y-68205635D01*
X117415711Y-68205306D01*
X117384863Y-68134458D01*
X117353341Y-68055563D01*
X117327946Y-67985640D01*
X117324103Y-67974362D01*
X117304727Y-67922007D01*
X117287254Y-67881323D01*
X117275068Y-67860327D01*
X117270106Y-67857362D01*
X117240314Y-67847415D01*
X117189727Y-67834545D01*
X117123874Y-67820093D01*
X117048280Y-67805395D01*
X117025637Y-67801250D01*
X116943718Y-67786156D01*
X116867280Y-67771939D01*
X116804017Y-67760035D01*
X116761623Y-67751879D01*
X116685423Y-67736839D01*
X116685423Y-67419532D01*
X116685440Y-67380516D01*
X116685762Y-67285332D01*
X116686713Y-67214295D01*
X116688576Y-67163774D01*
X116691635Y-67130138D01*
X116696174Y-67109758D01*
X116702475Y-67099002D01*
X116710823Y-67094239D01*
X116718904Y-67092310D01*
X116751852Y-67085485D01*
X116804416Y-67075062D01*
X116871249Y-67062058D01*
X116947008Y-67047489D01*
X117026345Y-67032373D01*
X117103917Y-67017725D01*
X117174378Y-67004563D01*
X117232382Y-66993903D01*
X117272584Y-66986761D01*
X117289639Y-66984154D01*
X117290792Y-66982581D01*
X117300065Y-66962159D01*
X117316112Y-66923085D01*
X117336315Y-66871669D01*
X117364352Y-66802393D01*
X117398866Y-66722330D01*
X117431218Y-66651768D01*
X117438632Y-66635929D01*
X117459435Y-66586333D01*
X117471899Y-66548078D01*
X117473543Y-66528396D01*
X117472695Y-66527002D01*
X117459228Y-66506460D01*
X117432530Y-66466556D01*
X117395219Y-66411180D01*
X117349914Y-66344217D01*
X117299232Y-66269557D01*
X117242125Y-66184732D01*
X117199287Y-66118840D01*
X117170140Y-66070518D01*
X117152997Y-66036773D01*
X117146175Y-66014612D01*
X117147986Y-66001042D01*
X117148595Y-66000024D01*
X117164977Y-65980250D01*
X117198375Y-65944215D01*
X117245351Y-65895491D01*
X117302466Y-65837652D01*
X117366283Y-65774267D01*
X117432482Y-65709945D01*
X117497328Y-65649487D01*
X117544979Y-65608695D01*
X117576670Y-65586524D01*
X117593638Y-65581929D01*
X117595855Y-65582961D01*
X117619204Y-65596877D01*
X117661592Y-65624070D01*
X117719049Y-65661929D01*
X117787603Y-65707843D01*
X117863281Y-65759200D01*
X118109978Y-65927666D01*
X118221386Y-65877102D01*
X118224623Y-65875637D01*
X118293023Y-65846005D01*
X118365587Y-65816533D01*
X118427137Y-65793398D01*
X118427409Y-65793302D01*
X118476275Y-65775407D01*
X118513892Y-65760293D01*
X118532137Y-65751224D01*
X118532432Y-65750895D01*
X118538626Y-65732322D01*
X118548819Y-65690085D01*
X118562028Y-65628736D01*
X118577270Y-65552829D01*
X118593561Y-65466915D01*
X118594129Y-65463836D01*
X118610393Y-65376168D01*
X118625288Y-65296781D01*
X118637851Y-65230741D01*
X118647118Y-65183119D01*
X118652124Y-65158983D01*
X118652444Y-65157645D01*
X118655740Y-65147313D01*
X118662418Y-65139546D01*
X118676142Y-65133980D01*
X118700575Y-65130247D01*
X118739382Y-65127982D01*
X118796226Y-65126818D01*
X118874770Y-65126388D01*
X118978680Y-65126326D01*
X118991736Y-65126326D01*
X119092613Y-65126411D01*
D11*
X111828580Y-63522860D03*
X111833660Y-71135240D03*
X108955840Y-63522860D03*
X128856740Y-63535560D03*
X108960920Y-66065400D03*
X108968540Y-71137780D03*
X126184660Y-63533020D03*
X111828580Y-66065400D03*
X126207520Y-71155560D03*
X126159260Y-68607940D03*
X111823500Y-68597780D03*
X108971080Y-68590160D03*
X128866900Y-71163180D03*
X128869440Y-66075560D03*
X128859280Y-68605400D03*
X126204980Y-66070480D03*
D12*
X122776161Y-63521741D03*
X122776161Y-66061741D03*
X122776161Y-68601741D03*
X122776161Y-71141741D03*
X115156161Y-71141741D03*
X115156161Y-68601741D03*
X115156161Y-66061741D03*
D13*
X115156161Y-63521741D03*
M02*
