M48
; DRILL file {KiCad (5.99.0-1023-gd6706c257)} date Mon Mar  9 12:25:55 2020
; FORMAT={-:-/ absolute / inch / decimal}
; #@! TF.CreationDate,2020-03-09T12:25:55+01:00
; #@! TF.GenerationSoftware,Kicad,Pcbnew,(5.99.0-1023-gd6706c257)
; #@! TF.FileFunction,Plated,1,2,PTH
FMAT,2
INCH
T1C0.0394
%
G90
G05
T1
X4.4027Y-2.5009
X4.4027Y-2.5009
X4.9687Y-2.6012
X4.9687Y-2.6012
X5.0732Y-2.701
X5.0732Y-2.701
X5.0736Y-2.6014
X5.0736Y-2.6014
X4.5337Y-2.5009
X4.5337Y-2.6009
X4.5337Y-2.7009
X4.5337Y-2.8009
X4.8337Y-2.5009
X4.8337Y-2.6009
X4.8337Y-2.7009
X4.8337Y-2.8009
X4.4025Y-2.7007
X4.4025Y-2.7007
X4.5331Y-2.5006
X4.5331Y-2.6006
X4.5331Y-2.7006
X4.5331Y-2.8006
X4.8331Y-2.5006
X4.8331Y-2.6006
X4.8331Y-2.7006
X4.8331Y-2.8006
X4.9669Y-2.7011
X4.9669Y-2.7011
X5.0735Y-2.8017
X5.0735Y-2.8017
X4.9688Y-2.8014
X4.9688Y-2.8014
X4.2902Y-2.7004
X4.2902Y-2.7004
X4.4027Y-2.601
X4.4027Y-2.601
X4.2896Y-2.5009
X4.2896Y-2.5009
X4.9679Y-2.5013
X4.9679Y-2.5013
X4.2901Y-2.8007
X4.2901Y-2.8007
X4.4029Y-2.8006
X4.4029Y-2.8006
X4.2898Y-2.601
X4.2898Y-2.601
X5.0731Y-2.5014
X5.0731Y-2.5014
T0
M30
