G04 #@! TF.GenerationSoftware,KiCad,Pcbnew,(5.99.0-1023-gd6706c257)*
G04 #@! TF.CreationDate,2020-03-03T23:23:20+01:00*
G04 #@! TF.ProjectId,flex-dip,666c6578-2d64-4697-902e-6b696361645f,rev?*
G04 #@! TF.SameCoordinates,Original*
G04 #@! TF.FileFunction,Legend,Top*
G04 #@! TF.FilePolarity,Positive*
%FSLAX46Y46*%
G04 Gerber Fmt 4.6, Leading zero omitted, Abs format (unit mm)*
G04 Created by KiCad (PCBNEW (5.99.0-1023-gd6706c257)) date 2020-03-03 23:23:20*
%MOMM*%
%LPD*%
G01*
G04 APERTURE LIST*
%ADD10C,0.101600*%
%ADD11C,0.100000*%
G04 APERTURE END LIST*
D10*
X114971677Y-72993411D02*
X114924058Y-72950554D01*
X114828820Y-72907697D01*
X114733581Y-72907697D01*
X114638343Y-72950554D01*
X114590724Y-72993411D01*
X114543105Y-73079125D01*
X114543105Y-73164840D01*
X114590724Y-73250554D01*
X114638343Y-73293411D01*
X114733581Y-73336268D01*
X114828820Y-73336268D01*
X114924058Y-73293411D01*
X114971677Y-73250554D01*
X114971677Y-72907697D02*
X114971677Y-73250554D01*
X115019296Y-73293411D01*
X115066915Y-73293411D01*
X115162153Y-73250554D01*
X115209772Y-73164840D01*
X115209772Y-72950554D01*
X115114534Y-72821982D01*
X114971677Y-72736268D01*
X114781200Y-72693411D01*
X114590724Y-72736268D01*
X114447867Y-72821982D01*
X114352629Y-72950554D01*
X114305010Y-73121982D01*
X114352629Y-73293411D01*
X114447867Y-73421982D01*
X114590724Y-73507697D01*
X114781200Y-73550554D01*
X114971677Y-73507697D01*
X115114534Y-73421982D01*
X115638343Y-73421982D02*
X115638343Y-72521982D01*
X115638343Y-72950554D02*
X116209772Y-72950554D01*
X116209772Y-73421982D02*
X116209772Y-72521982D01*
X117066915Y-73379125D02*
X116971677Y-73421982D01*
X116781200Y-73421982D01*
X116685962Y-73379125D01*
X116638343Y-73293411D01*
X116638343Y-72950554D01*
X116685962Y-72864840D01*
X116781200Y-72821982D01*
X116971677Y-72821982D01*
X117066915Y-72864840D01*
X117114534Y-72950554D01*
X117114534Y-73036268D01*
X116638343Y-73121982D01*
X117685962Y-73421982D02*
X117590724Y-73379125D01*
X117543105Y-73293411D01*
X117543105Y-72521982D01*
X118447867Y-73379125D02*
X118352629Y-73421982D01*
X118162153Y-73421982D01*
X118066915Y-73379125D01*
X118019296Y-73293411D01*
X118019296Y-72950554D01*
X118066915Y-72864840D01*
X118162153Y-72821982D01*
X118352629Y-72821982D01*
X118447867Y-72864840D01*
X118495486Y-72950554D01*
X118495486Y-73036268D01*
X118019296Y-73121982D01*
X118924058Y-72821982D02*
X118924058Y-73421982D01*
X118924058Y-72907697D02*
X118971677Y-72864840D01*
X119066915Y-72821982D01*
X119209772Y-72821982D01*
X119305010Y-72864840D01*
X119352629Y-72950554D01*
X119352629Y-73421982D01*
X120305010Y-73421982D02*
X119828820Y-73421982D01*
X119828820Y-72521982D01*
X121019296Y-73379125D02*
X120924058Y-73421982D01*
X120733581Y-73421982D01*
X120638343Y-73379125D01*
X120590724Y-73293411D01*
X120590724Y-72950554D01*
X120638343Y-72864840D01*
X120733581Y-72821982D01*
X120924058Y-72821982D01*
X121019296Y-72864840D01*
X121066915Y-72950554D01*
X121066915Y-73036268D01*
X120590724Y-73121982D01*
X121495486Y-73421982D02*
X121495486Y-72821982D01*
X121495486Y-72521982D02*
X121447867Y-72564840D01*
X121495486Y-72607697D01*
X121543105Y-72564840D01*
X121495486Y-72521982D01*
X121495486Y-72607697D01*
X122400248Y-72821982D02*
X122400248Y-73550554D01*
X122352629Y-73636268D01*
X122305010Y-73679125D01*
X122209772Y-73721982D01*
X122066915Y-73721982D01*
X121971677Y-73679125D01*
X122400248Y-73379125D02*
X122305010Y-73421982D01*
X122114534Y-73421982D01*
X122019296Y-73379125D01*
X121971677Y-73336268D01*
X121924058Y-73250554D01*
X121924058Y-72993411D01*
X121971677Y-72907697D01*
X122019296Y-72864840D01*
X122114534Y-72821982D01*
X122305010Y-72821982D01*
X122400248Y-72864840D01*
X122876439Y-73421982D02*
X122876439Y-72521982D01*
X123305010Y-73421982D02*
X123305010Y-72950554D01*
X123257391Y-72864840D01*
X123162153Y-72821982D01*
X123019296Y-72821982D01*
X122924058Y-72864840D01*
X122876439Y-72907697D01*
X112921384Y-61992305D02*
X113066527Y-62035162D01*
X113308432Y-62035162D01*
X113405194Y-61992305D01*
X113453575Y-61949448D01*
X113501956Y-61863734D01*
X113501956Y-61778020D01*
X113453575Y-61692305D01*
X113405194Y-61649448D01*
X113308432Y-61606591D01*
X113114908Y-61563734D01*
X113018146Y-61520877D01*
X112969765Y-61478020D01*
X112921384Y-61392305D01*
X112921384Y-61306591D01*
X112969765Y-61220877D01*
X113018146Y-61178020D01*
X113114908Y-61135162D01*
X113356813Y-61135162D01*
X113501956Y-61178020D01*
X113792241Y-61435162D02*
X114179289Y-61435162D01*
X113937384Y-61135162D02*
X113937384Y-61906591D01*
X113985765Y-61992305D01*
X114082527Y-62035162D01*
X114179289Y-62035162D01*
X114517956Y-62035162D02*
X114517956Y-61435162D01*
X114517956Y-61135162D02*
X114469575Y-61178020D01*
X114517956Y-61220877D01*
X114566337Y-61178020D01*
X114517956Y-61135162D01*
X114517956Y-61220877D01*
X114856622Y-61435162D02*
X115243670Y-61435162D01*
X115001765Y-61135162D02*
X115001765Y-61906591D01*
X115050146Y-61992305D01*
X115146908Y-62035162D01*
X115243670Y-62035162D01*
X116017765Y-61992305D02*
X115921003Y-62035162D01*
X115727480Y-62035162D01*
X115630718Y-61992305D01*
X115582337Y-61949448D01*
X115533956Y-61863734D01*
X115533956Y-61606591D01*
X115582337Y-61520877D01*
X115630718Y-61478020D01*
X115727480Y-61435162D01*
X115921003Y-61435162D01*
X116017765Y-61478020D01*
X116453194Y-62035162D02*
X116453194Y-61135162D01*
X116888622Y-62035162D02*
X116888622Y-61563734D01*
X116840241Y-61478020D01*
X116743480Y-61435162D01*
X116598337Y-61435162D01*
X116501575Y-61478020D01*
X116453194Y-61520877D01*
X118581956Y-62035162D02*
X118581956Y-61563734D01*
X118533575Y-61478020D01*
X118436813Y-61435162D01*
X118243289Y-61435162D01*
X118146527Y-61478020D01*
X118581956Y-61992305D02*
X118485194Y-62035162D01*
X118243289Y-62035162D01*
X118146527Y-61992305D01*
X118098146Y-61906591D01*
X118098146Y-61820877D01*
X118146527Y-61735162D01*
X118243289Y-61692305D01*
X118485194Y-61692305D01*
X118581956Y-61649448D01*
X119065765Y-61435162D02*
X119065765Y-62035162D01*
X119065765Y-61520877D02*
X119114146Y-61478020D01*
X119210908Y-61435162D01*
X119356051Y-61435162D01*
X119452813Y-61478020D01*
X119501194Y-61563734D01*
X119501194Y-62035162D01*
X120420432Y-62035162D02*
X120420432Y-61135162D01*
X120420432Y-61992305D02*
X120323670Y-62035162D01*
X120130146Y-62035162D01*
X120033384Y-61992305D01*
X119985003Y-61949448D01*
X119936622Y-61863734D01*
X119936622Y-61606591D01*
X119985003Y-61520877D01*
X120033384Y-61478020D01*
X120130146Y-61435162D01*
X120323670Y-61435162D01*
X120420432Y-61478020D01*
X122210527Y-61178020D02*
X122113765Y-61135162D01*
X121968622Y-61135162D01*
X121823480Y-61178020D01*
X121726718Y-61263734D01*
X121678337Y-61349448D01*
X121629956Y-61520877D01*
X121629956Y-61649448D01*
X121678337Y-61820877D01*
X121726718Y-61906591D01*
X121823480Y-61992305D01*
X121968622Y-62035162D01*
X122065384Y-62035162D01*
X122210527Y-61992305D01*
X122258908Y-61949448D01*
X122258908Y-61649448D01*
X122065384Y-61649448D01*
X122839480Y-62035162D02*
X122742718Y-61992305D01*
X122694337Y-61906591D01*
X122694337Y-61135162D01*
X123226527Y-62035162D02*
X123226527Y-61435162D01*
X123226527Y-61135162D02*
X123178146Y-61178020D01*
X123226527Y-61220877D01*
X123274908Y-61178020D01*
X123226527Y-61135162D01*
X123226527Y-61220877D01*
X123565194Y-61435162D02*
X123952241Y-61435162D01*
X123710337Y-61135162D02*
X123710337Y-61906591D01*
X123758718Y-61992305D01*
X123855480Y-62035162D01*
X123952241Y-62035162D01*
X124726337Y-61992305D02*
X124629575Y-62035162D01*
X124436051Y-62035162D01*
X124339289Y-61992305D01*
X124290908Y-61949448D01*
X124242527Y-61863734D01*
X124242527Y-61606591D01*
X124290908Y-61520877D01*
X124339289Y-61478020D01*
X124436051Y-61435162D01*
X124629575Y-61435162D01*
X124726337Y-61478020D01*
X125161765Y-62035162D02*
X125161765Y-61135162D01*
X125597194Y-62035162D02*
X125597194Y-61563734D01*
X125548813Y-61478020D01*
X125452051Y-61435162D01*
X125306908Y-61435162D01*
X125210146Y-61478020D01*
X125161765Y-61520877D01*
D11*
X115556161Y-72321741D02*
X115856161Y-72321741D01*
X115556161Y-72021741D02*
X115556161Y-72321741D01*
X122356161Y-72321741D02*
X122056161Y-72321741D01*
X122356161Y-72021741D02*
X122356161Y-72321741D01*
X122356161Y-62321741D02*
X122056161Y-62321741D01*
X122356161Y-62621741D02*
X122356161Y-62321741D01*
X115556161Y-62321741D02*
X115856161Y-62321741D01*
X115556161Y-62621741D02*
X115556161Y-62321741D01*
M02*
